%TF.GenerationSoftware,KiCad,Pcbnew,8.0.6*%
%TF.CreationDate,2024-11-13T18:12:31-06:00*%
%TF.ProjectId,speaker,73706561-6b65-4722-9e6b-696361645f70,rev?*%
%TF.SameCoordinates,Original*%
%TF.FileFunction,Legend,Bot*%
%TF.FilePolarity,Positive*%
%FSLAX46Y46*%
G04 Gerber Fmt 4.6, Leading zero omitted, Abs format (unit mm)*
G04 Created by KiCad (PCBNEW 8.0.6) date 2024-11-13 18:12:31*
%MOMM*%
%LPD*%
G01*
G04 APERTURE LIST*
%ADD10C,0.150000*%
%ADD11C,0.120000*%
G04 APERTURE END LIST*
D10*
X139133333Y-73154819D02*
X139133333Y-73869104D01*
X139133333Y-73869104D02*
X139180952Y-74011961D01*
X139180952Y-74011961D02*
X139276190Y-74107200D01*
X139276190Y-74107200D02*
X139419047Y-74154819D01*
X139419047Y-74154819D02*
X139514285Y-74154819D01*
X138704761Y-73250057D02*
X138657142Y-73202438D01*
X138657142Y-73202438D02*
X138561904Y-73154819D01*
X138561904Y-73154819D02*
X138323809Y-73154819D01*
X138323809Y-73154819D02*
X138228571Y-73202438D01*
X138228571Y-73202438D02*
X138180952Y-73250057D01*
X138180952Y-73250057D02*
X138133333Y-73345295D01*
X138133333Y-73345295D02*
X138133333Y-73440533D01*
X138133333Y-73440533D02*
X138180952Y-73583390D01*
X138180952Y-73583390D02*
X138752380Y-74154819D01*
X138752380Y-74154819D02*
X138133333Y-74154819D01*
D11*
%TO.C,J2*%
X135740000Y-74790001D02*
X135740000Y-82610001D01*
X135740000Y-82610001D02*
X141860000Y-82610000D01*
X136500000Y-80350000D02*
X136500001Y-78750000D01*
X136500001Y-78750000D02*
X137499999Y-78750000D01*
X136660000Y-74790000D02*
X135740000Y-74790001D01*
X136660000Y-76390000D02*
X135740000Y-76389999D01*
X136660000Y-76390000D02*
X136660000Y-74790000D01*
X136940001Y-76390000D02*
X136660000Y-76390000D01*
X137499999Y-78750000D02*
X137500000Y-80350000D01*
X137500000Y-80350000D02*
X136500000Y-80350000D01*
X138300000Y-78250000D02*
X139300000Y-78250000D01*
X138300000Y-82610000D02*
X138300000Y-78250000D01*
X139300000Y-78250000D02*
X139300000Y-82610001D01*
X140100000Y-78750000D02*
X140100000Y-80350000D01*
X140100000Y-80350000D02*
X141100000Y-80350000D01*
X140100000Y-82610000D02*
X140100000Y-80350000D01*
X140600000Y-82610001D02*
X140600000Y-80350000D01*
X140660000Y-75175000D02*
X140660000Y-76390000D01*
X140940000Y-74790000D02*
X140940000Y-76390000D01*
X140940000Y-76390000D02*
X140660000Y-76390000D01*
X140940000Y-76390000D02*
X141860000Y-76390000D01*
X141100000Y-78750000D02*
X140100000Y-78750000D01*
X141100000Y-80350000D02*
X141100000Y-78750000D01*
X141860000Y-74790000D02*
X140940000Y-74790000D01*
X141860000Y-82610000D02*
X141860000Y-74790000D01*
%TD*%
M02*
