%TF.GenerationSoftware,KiCad,Pcbnew,8.0.6*%
%TF.CreationDate,2024-11-13T18:12:31-06:00*%
%TF.ProjectId,speaker,73706561-6b65-4722-9e6b-696361645f70,rev?*%
%TF.SameCoordinates,Original*%
%TF.FileFunction,Paste,Top*%
%TF.FilePolarity,Positive*%
%FSLAX46Y46*%
G04 Gerber Fmt 4.6, Leading zero omitted, Abs format (unit mm)*
G04 Created by KiCad (PCBNEW 8.0.6) date 2024-11-13 18:12:31*
%MOMM*%
%LPD*%
G01*
G04 APERTURE LIST*
G04 Aperture macros list*
%AMRoundRect*
0 Rectangle with rounded corners*
0 $1 Rounding radius*
0 $2 $3 $4 $5 $6 $7 $8 $9 X,Y pos of 4 corners*
0 Add a 4 corners polygon primitive as box body*
4,1,4,$2,$3,$4,$5,$6,$7,$8,$9,$2,$3,0*
0 Add four circle primitives for the rounded corners*
1,1,$1+$1,$2,$3*
1,1,$1+$1,$4,$5*
1,1,$1+$1,$6,$7*
1,1,$1+$1,$8,$9*
0 Add four rect primitives between the rounded corners*
20,1,$1+$1,$2,$3,$4,$5,0*
20,1,$1+$1,$4,$5,$6,$7,0*
20,1,$1+$1,$6,$7,$8,$9,0*
20,1,$1+$1,$8,$9,$2,$3,0*%
G04 Aperture macros list end*
%ADD10C,0.010000*%
%ADD11RoundRect,0.155000X-0.155000X0.212500X-0.155000X-0.212500X0.155000X-0.212500X0.155000X0.212500X0*%
%ADD12R,0.977900X0.508000*%
%ADD13RoundRect,0.237500X0.250000X0.237500X-0.250000X0.237500X-0.250000X-0.237500X0.250000X-0.237500X0*%
%ADD14RoundRect,0.155000X0.155000X-0.212500X0.155000X0.212500X-0.155000X0.212500X-0.155000X-0.212500X0*%
%ADD15RoundRect,0.160000X0.160000X-0.222500X0.160000X0.222500X-0.160000X0.222500X-0.160000X-0.222500X0*%
%ADD16RoundRect,0.200000X-0.275000X0.200000X-0.275000X-0.200000X0.275000X-0.200000X0.275000X0.200000X0*%
%ADD17RoundRect,0.200000X0.275000X-0.200000X0.275000X0.200000X-0.275000X0.200000X-0.275000X-0.200000X0*%
%ADD18RoundRect,0.225000X-0.225000X-0.250000X0.225000X-0.250000X0.225000X0.250000X-0.225000X0.250000X0*%
%ADD19RoundRect,0.237500X-0.237500X0.250000X-0.237500X-0.250000X0.237500X-0.250000X0.237500X0.250000X0*%
%ADD20RoundRect,0.225000X-0.250000X0.225000X-0.250000X-0.225000X0.250000X-0.225000X0.250000X0.225000X0*%
%ADD21R,1.219200X0.279400*%
%ADD22RoundRect,0.200000X-0.200000X-0.275000X0.200000X-0.275000X0.200000X0.275000X-0.200000X0.275000X0*%
%ADD23RoundRect,0.200000X0.200000X0.275000X-0.200000X0.275000X-0.200000X-0.275000X0.200000X-0.275000X0*%
%ADD24RoundRect,0.008100X-0.411900X-0.126900X0.411900X-0.126900X0.411900X0.126900X-0.411900X0.126900X0*%
%ADD25RoundRect,0.008100X0.126900X-0.411900X0.126900X0.411900X-0.126900X0.411900X-0.126900X-0.411900X0*%
%ADD26RoundRect,0.237500X0.237500X-0.250000X0.237500X0.250000X-0.237500X0.250000X-0.237500X-0.250000X0*%
%ADD27RoundRect,0.162500X-0.837500X-0.162500X0.837500X-0.162500X0.837500X0.162500X-0.837500X0.162500X0*%
G04 APERTURE END LIST*
D10*
%TO.C,U3*%
X129250000Y-103425000D02*
X128550000Y-103425000D01*
X128550000Y-102725000D01*
X129250000Y-102725000D01*
X129250000Y-103425000D01*
G36*
X129250000Y-103425000D02*
G01*
X128550000Y-103425000D01*
X128550000Y-102725000D01*
X129250000Y-102725000D01*
X129250000Y-103425000D01*
G37*
%TD*%
D11*
%TO.C,C1*%
X134000000Y-104500000D03*
X134000000Y-105635000D03*
%TD*%
D12*
%TO.C,U2*%
X129165250Y-75700001D03*
X129165250Y-74750000D03*
X129165250Y-73799999D03*
X126434750Y-73799999D03*
X126434750Y-75700001D03*
%TD*%
D13*
%TO.C,R5*%
X133862500Y-73900000D03*
X132037500Y-73900000D03*
%TD*%
D14*
%TO.C,C5*%
X134700000Y-103067500D03*
X134700000Y-101932500D03*
%TD*%
D13*
%TO.C,R3*%
X125812500Y-106000000D03*
X123987500Y-106000000D03*
%TD*%
D15*
%TO.C,D2*%
X130400000Y-68472501D03*
X130400000Y-67327499D03*
%TD*%
D16*
%TO.C,RT2*%
X127800000Y-67925000D03*
X127800000Y-69575000D03*
%TD*%
D17*
%TO.C,R_Stat2_LED1*%
X133500000Y-69575000D03*
X133500000Y-67925000D03*
%TD*%
D18*
%TO.C,C2*%
X134200000Y-64000000D03*
X135750000Y-64000000D03*
%TD*%
D16*
%TO.C,R2*%
X126100000Y-67925000D03*
X126100000Y-69575000D03*
%TD*%
D19*
%TO.C,R6*%
X124150000Y-77537500D03*
X124150000Y-79362500D03*
%TD*%
D20*
%TO.C,C3*%
X128277600Y-106668400D03*
X128277600Y-108218400D03*
%TD*%
D21*
%TO.C,U5*%
X127691000Y-63599999D03*
X127691000Y-64100001D03*
X127691000Y-64600000D03*
X127691000Y-65099999D03*
X127691000Y-65600001D03*
X131678800Y-65600001D03*
X131678800Y-65099999D03*
X131678800Y-64600000D03*
X131678800Y-64100001D03*
X131678800Y-63599999D03*
%TD*%
D15*
%TO.C,D3*%
X129200000Y-68472501D03*
X129200000Y-67327499D03*
%TD*%
D22*
%TO.C,RT1*%
X129250000Y-71450000D03*
X130900000Y-71450000D03*
%TD*%
D23*
%TO.C,R1*%
X127725000Y-71450000D03*
X126075000Y-71450000D03*
%TD*%
D20*
%TO.C,C4*%
X130233400Y-106668400D03*
X130233400Y-108218400D03*
%TD*%
D15*
%TO.C,D1*%
X124350000Y-64622500D03*
X124350000Y-63477500D03*
%TD*%
D17*
%TO.C,R_Stat1_LED1*%
X131800000Y-69525000D03*
X131800000Y-67875000D03*
%TD*%
D24*
%TO.C,U3*%
X127465000Y-102325000D03*
X127465000Y-102825000D03*
X127465000Y-103325000D03*
X127465000Y-103825000D03*
D25*
X128150000Y-104510000D03*
X128650000Y-104510000D03*
X129150000Y-104510000D03*
X129650000Y-104510000D03*
D24*
X130335000Y-103825000D03*
X130335000Y-103325000D03*
X130335000Y-102825000D03*
X130335000Y-102325000D03*
D25*
X129650000Y-101640000D03*
X129150000Y-101640000D03*
X128650000Y-101640000D03*
X128150000Y-101640000D03*
%TD*%
D26*
%TO.C,R4*%
X132500000Y-79412500D03*
X132500000Y-77587500D03*
%TD*%
D16*
%TO.C,R_PG_LED1*%
X124400000Y-66000000D03*
X124400000Y-67650000D03*
%TD*%
D27*
%TO.C,U4*%
X126640000Y-78500000D03*
X126640000Y-79450000D03*
X126640000Y-80400000D03*
X130060000Y-80400000D03*
X130060000Y-79450000D03*
X130060000Y-78500000D03*
%TD*%
M02*
