%TF.GenerationSoftware,KiCad,Pcbnew,8.0.6*%
%TF.CreationDate,2024-11-19T20:55:52-06:00*%
%TF.ProjectId,speaker,73706561-6b65-4722-9e6b-696361645f70,rev?*%
%TF.SameCoordinates,Original*%
%TF.FileFunction,Copper,L2,Bot*%
%TF.FilePolarity,Positive*%
%FSLAX46Y46*%
G04 Gerber Fmt 4.6, Leading zero omitted, Abs format (unit mm)*
G04 Created by KiCad (PCBNEW 8.0.6) date 2024-11-19 20:55:52*
%MOMM*%
%LPD*%
G01*
G04 APERTURE LIST*
G04 Aperture macros list*
%AMRoundRect*
0 Rectangle with rounded corners*
0 $1 Rounding radius*
0 $2 $3 $4 $5 $6 $7 $8 $9 X,Y pos of 4 corners*
0 Add a 4 corners polygon primitive as box body*
4,1,4,$2,$3,$4,$5,$6,$7,$8,$9,$2,$3,0*
0 Add four circle primitives for the rounded corners*
1,1,$1+$1,$2,$3*
1,1,$1+$1,$4,$5*
1,1,$1+$1,$6,$7*
1,1,$1+$1,$8,$9*
0 Add four rect primitives between the rounded corners*
20,1,$1+$1,$2,$3,$4,$5,0*
20,1,$1+$1,$4,$5,$6,$7,0*
20,1,$1+$1,$6,$7,$8,$9,0*
20,1,$1+$1,$8,$9,$2,$3,0*%
G04 Aperture macros list end*
%TA.AperFunction,SMDPad,CuDef*%
%ADD10RoundRect,0.250000X0.250000X1.500000X-0.250000X1.500000X-0.250000X-1.500000X0.250000X-1.500000X0*%
%TD*%
%TA.AperFunction,SMDPad,CuDef*%
%ADD11RoundRect,0.250001X0.499999X1.449999X-0.499999X1.449999X-0.499999X-1.449999X0.499999X-1.449999X0*%
%TD*%
%TA.AperFunction,ComponentPad*%
%ADD12O,1.700000X1.700000*%
%TD*%
%TA.AperFunction,ComponentPad*%
%ADD13R,1.700000X1.700000*%
%TD*%
%TA.AperFunction,ComponentPad*%
%ADD14C,2.000000*%
%TD*%
%TA.AperFunction,ComponentPad*%
%ADD15R,2.100000X2.100000*%
%TD*%
%TA.AperFunction,ComponentPad*%
%ADD16C,2.100000*%
%TD*%
%TA.AperFunction,ComponentPad*%
%ADD17R,0.850000X0.850000*%
%TD*%
%TA.AperFunction,ComponentPad*%
%ADD18O,0.850000X0.850000*%
%TD*%
%TA.AperFunction,ViaPad*%
%ADD19C,0.800000*%
%TD*%
%TA.AperFunction,Conductor*%
%ADD20C,0.500000*%
%TD*%
%TA.AperFunction,Conductor*%
%ADD21C,0.300000*%
%TD*%
%TA.AperFunction,Conductor*%
%ADD22C,0.250000*%
%TD*%
G04 APERTURE END LIST*
D10*
%TO.P,J2,1,Pin_1*%
%TO.N,/V_LOAD*%
X141100000Y-72300000D03*
%TO.P,J2,2,Pin_2*%
%TO.N,GND*%
X139100000Y-72300000D03*
D11*
%TO.P,J2,MP*%
%TO.N,N/C*%
X143450000Y-78050000D03*
X136750000Y-78050000D03*
%TD*%
D12*
%TO.P,U1,1,GPIO0*%
%TO.N,unconnected-(U1-GPIO0-Pad1)_1*%
X100720000Y-63830000D03*
%TO.P,U1,2,GPIO1*%
%TO.N,Net-(U1-GPIO1)*%
X100720000Y-66370000D03*
D13*
%TO.P,U1,3,GND*%
%TO.N,GND*%
X100720000Y-68910000D03*
D12*
%TO.P,U1,4,GPIO2*%
%TO.N,unconnected-(U1-GPIO2-Pad4)*%
X100720000Y-71450000D03*
%TO.P,U1,5,GPIO3*%
%TO.N,unconnected-(U1-GPIO3-Pad5)_1*%
X100720000Y-73990000D03*
%TO.P,U1,6,GPIO4*%
%TO.N,unconnected-(U1-GPIO4-Pad6)_1*%
X100720000Y-76530000D03*
%TO.P,U1,7,GPIO5*%
%TO.N,unconnected-(U1-GPIO5-Pad7)*%
X100720000Y-79070000D03*
D13*
%TO.P,U1,8,GND*%
%TO.N,GND*%
X100720000Y-81610000D03*
D12*
%TO.P,U1,9,GPIO6*%
%TO.N,Net-(J1-Pin_5)*%
X100720000Y-84150000D03*
%TO.P,U1,10,GPIO7*%
%TO.N,Net-(J1-Pin_4)*%
X100720000Y-86690000D03*
%TO.P,U1,11,GPIO8*%
%TO.N,Net-(J1-Pin_3)*%
X100720000Y-89230000D03*
%TO.P,U1,12,GPIO9*%
%TO.N,Net-(J1-Pin_2)*%
X100720000Y-91770000D03*
D13*
%TO.P,U1,13,GND*%
%TO.N,GND*%
X100720000Y-94310000D03*
D12*
%TO.P,U1,14,GPIO10*%
%TO.N,Net-(J1-Pin_1)*%
X100720000Y-96850000D03*
%TO.P,U1,15,GPIO11*%
%TO.N,unconnected-(U1-GPIO11-Pad15)*%
X100720000Y-99390000D03*
%TO.P,U1,16,GPIO12*%
%TO.N,unconnected-(U1-GPIO12-Pad16)_1*%
X100720000Y-101930000D03*
%TO.P,U1,17,GPIO13*%
%TO.N,unconnected-(U1-GPIO13-Pad17)_1*%
X100720000Y-104470000D03*
D13*
%TO.P,U1,18,GND*%
%TO.N,GND*%
X100720000Y-107010000D03*
D12*
%TO.P,U1,19,GPIO14*%
%TO.N,unconnected-(U1-GPIO14-Pad19)*%
X100720000Y-109550000D03*
%TO.P,U1,20,GPIO15*%
%TO.N,Net-(U1-GPIO15)*%
X100720000Y-112090000D03*
%TO.P,U1,21,GPIO16*%
%TO.N,unconnected-(U1-GPIO16-Pad21)_1*%
X118500000Y-112090000D03*
%TO.P,U1,22,GPIO17*%
%TO.N,unconnected-(U1-GPIO17-Pad22)*%
X118500000Y-109550000D03*
D13*
%TO.P,U1,23,GND*%
%TO.N,GND*%
X118500000Y-107010000D03*
D12*
%TO.P,U1,24,GPIO18*%
%TO.N,unconnected-(U1-GPIO18-Pad24)*%
X118500000Y-104470000D03*
%TO.P,U1,25,GPIO19*%
%TO.N,/D_in*%
X118500000Y-101930000D03*
%TO.P,U1,26,GPIO20*%
%TO.N,/BCLK*%
X118500000Y-99390000D03*
%TO.P,U1,27,GPIO21*%
%TO.N,/LRCLK*%
X118500000Y-96850000D03*
D13*
%TO.P,U1,28,GND*%
%TO.N,GND*%
X118500000Y-94310000D03*
D12*
%TO.P,U1,29,GPIO22*%
%TO.N,unconnected-(U1-GPIO22-Pad29)_1*%
X118500000Y-91770000D03*
%TO.P,U1,30,RUN*%
%TO.N,unconnected-(U1-RUN-Pad30)*%
X118500000Y-89230000D03*
%TO.P,U1,31,GPIO26_ADC0*%
%TO.N,unconnected-(U1-GPIO26_ADC0-Pad31)*%
X118500000Y-86690000D03*
%TO.P,U1,32,GPIO27_ADC1*%
%TO.N,unconnected-(U1-GPIO27_ADC1-Pad32)_1*%
X118500000Y-84150000D03*
D13*
%TO.P,U1,33,AGND*%
%TO.N,unconnected-(U1-AGND-Pad33)_1*%
X118500000Y-81610000D03*
D12*
%TO.P,U1,34,GPIO28_ADC2*%
%TO.N,unconnected-(U1-GPIO28_ADC2-Pad34)_1*%
X118500000Y-79070000D03*
%TO.P,U1,35,ADC_VREF*%
%TO.N,unconnected-(U1-ADC_VREF-Pad35)*%
X118500000Y-76530000D03*
%TO.P,U1,36,3V3*%
%TO.N,+3V3*%
X118500000Y-73990000D03*
%TO.P,U1,37,3V3_EN*%
%TO.N,/ENABLE*%
X118500000Y-71450000D03*
D13*
%TO.P,U1,38,GND*%
%TO.N,GND*%
X118500000Y-68910000D03*
D12*
%TO.P,U1,39,VSYS*%
%TO.N,VSYS*%
X118500000Y-66370000D03*
%TO.P,U1,40,VBUS*%
%TO.N,VBUS*%
X118500000Y-63830000D03*
%TO.P,U1,41,SWCLK*%
%TO.N,unconnected-(U1-SWCLK-Pad41)*%
X110194100Y-93560000D03*
D13*
%TO.P,U1,42,GND*%
%TO.N,unconnected-(U1-GND-Pad42)*%
X112734100Y-93560000D03*
D12*
%TO.P,U1,43,SWDIO*%
%TO.N,unconnected-(U1-SWDIO-Pad43)*%
X115274100Y-93560000D03*
%TD*%
D14*
%TO.P,On_Off1,1,A*%
%TO.N,GND*%
X132550000Y-90850000D03*
X126050000Y-90850000D03*
%TO.P,On_Off1,2,B*%
%TO.N,Net-(On_Off1-B)*%
X132550000Y-86350000D03*
X126050000Y-86350000D03*
%TD*%
D15*
%TO.P,J3,1,Pin_1*%
%TO.N,Net-(J3-Pin_1)*%
X139850000Y-104850000D03*
D16*
%TO.P,J3,2,Pin_2*%
%TO.N,Net-(J3-Pin_2)*%
X139850000Y-102310000D03*
%TD*%
D14*
%TO.P,Vol_up1,1,A*%
%TO.N,GND*%
X92200000Y-72850000D03*
X85700000Y-72850000D03*
%TO.P,Vol_up1,2,B*%
%TO.N,Net-(U1-GPIO1)*%
X92200000Y-68350000D03*
X85700000Y-68350000D03*
%TD*%
D17*
%TO.P,J1,1,Pin_1*%
%TO.N,Net-(J1-Pin_1)*%
X92275000Y-90550000D03*
D18*
%TO.P,J1,2,Pin_2*%
%TO.N,Net-(J1-Pin_2)*%
X92275000Y-89550000D03*
%TO.P,J1,3,Pin_3*%
%TO.N,Net-(J1-Pin_3)*%
X92275000Y-88549999D03*
%TO.P,J1,4,Pin_4*%
%TO.N,Net-(J1-Pin_4)*%
X92275000Y-87550000D03*
%TO.P,J1,5,Pin_5*%
%TO.N,Net-(J1-Pin_5)*%
X92275000Y-86550000D03*
%TO.P,J1,6,Pin_6*%
%TO.N,GND*%
X92275000Y-85550000D03*
%TD*%
D14*
%TO.P,Vol_down1,1,A*%
%TO.N,GND*%
X85900000Y-105450000D03*
X92400000Y-105450000D03*
%TO.P,Vol_down1,2,B*%
%TO.N,Net-(U1-GPIO15)*%
X85900000Y-109950000D03*
X92400000Y-109950000D03*
%TD*%
D19*
%TO.N,GND*%
X136600000Y-69000000D03*
%TO.N,/V_LOAD*%
X141100000Y-68900000D03*
%TO.N,+3V3*%
X132367000Y-105627000D03*
X133025500Y-102190500D03*
%TO.N,GND*%
X87500000Y-87500000D03*
X125000000Y-95000000D03*
X145000000Y-102500000D03*
X132600000Y-66350000D03*
X124400000Y-80800000D03*
X145000000Y-87500000D03*
X95000000Y-80000000D03*
X145000000Y-110000000D03*
X137500000Y-87500000D03*
X128561299Y-100034701D03*
X92500000Y-65000000D03*
X145000000Y-80000000D03*
X124800000Y-69150000D03*
X140000000Y-67500000D03*
X95000000Y-115000000D03*
X87500000Y-95000000D03*
X80000000Y-72750000D03*
X95000000Y-95000000D03*
X137200000Y-64050000D03*
X87500000Y-115000000D03*
X134100000Y-106650000D03*
X145000000Y-67500000D03*
X132500000Y-82500000D03*
X95000000Y-102500000D03*
X145000000Y-95000000D03*
X132150000Y-71450000D03*
X130000000Y-95000000D03*
X130750000Y-74700000D03*
X134100000Y-75100000D03*
X140000000Y-115000000D03*
X80000000Y-110000000D03*
X140000000Y-110000000D03*
X125000000Y-110000000D03*
X131401800Y-108217800D03*
X80000000Y-87500000D03*
X127896600Y-109767200D03*
X132500000Y-115000000D03*
X124880000Y-103220000D03*
X85000000Y-65000000D03*
X132500000Y-110000000D03*
X80000000Y-80000000D03*
X145000000Y-72500000D03*
X125100000Y-72550000D03*
X87500000Y-102500000D03*
X134750000Y-101000000D03*
X125000000Y-115000000D03*
X131550000Y-101800000D03*
X80000000Y-95000000D03*
X80000000Y-102500000D03*
X137500000Y-95000000D03*
X87500000Y-80000000D03*
%TO.N,/ENABLE*%
X130650000Y-77050000D03*
X125850000Y-77150000D03*
%TO.N,/D_in*%
X126017000Y-101817000D03*
X123800000Y-101800000D03*
%TO.N,/LRCLK*%
X126525000Y-98769000D03*
X123850000Y-98600000D03*
%TO.N,/BCLK*%
X123750000Y-99950000D03*
X126271000Y-100039000D03*
%TD*%
D20*
%TO.N,GND*%
X137500000Y-69900000D02*
X136600000Y-69000000D01*
X138000000Y-69900000D02*
X137500000Y-69900000D01*
X139100000Y-70400000D02*
X138600000Y-69900000D01*
X139100000Y-72300000D02*
X139100000Y-70400000D01*
X138600000Y-69900000D02*
X138000000Y-69900000D01*
%TO.N,/V_LOAD*%
X141100000Y-68900000D02*
X141100000Y-72300000D01*
%TO.N,+3V3*%
X133025500Y-102190500D02*
X132367000Y-102849000D01*
X132367000Y-102849000D02*
X132367000Y-105627000D01*
D21*
%TO.N,/ENABLE*%
X130650000Y-77050000D02*
X126300000Y-77050000D01*
X125950000Y-77050000D02*
X125850000Y-77150000D01*
X126300000Y-77050000D02*
X125950000Y-77050000D01*
D22*
%TO.N,/D_in*%
X125991600Y-101842400D02*
X126017000Y-101817000D01*
X126017000Y-101817000D02*
X126000000Y-101800000D01*
X126000000Y-101800000D02*
X123800000Y-101800000D01*
%TO.N,/LRCLK*%
X124019000Y-98769000D02*
X123850000Y-98600000D01*
X126525000Y-98769000D02*
X124019000Y-98769000D01*
%TO.N,/BCLK*%
X126271000Y-100039000D02*
X123839000Y-100039000D01*
X123839000Y-100039000D02*
X123750000Y-99950000D01*
%TD*%
%TA.AperFunction,Conductor*%
%TO.N,GND*%
G36*
X143549213Y-62339911D02*
G01*
X143723715Y-62342460D01*
X143731450Y-62342979D01*
X144079061Y-62384726D01*
X144087742Y-62386299D01*
X144427384Y-62469074D01*
X144435810Y-62471670D01*
X144763138Y-62594348D01*
X144771213Y-62597938D01*
X145081578Y-62758772D01*
X145089161Y-62763296D01*
X145378133Y-62959991D01*
X145385115Y-62965379D01*
X145648586Y-63195143D01*
X145654880Y-63201332D01*
X145795348Y-63357004D01*
X145889057Y-63460855D01*
X145894576Y-63467760D01*
X146096129Y-63753346D01*
X146100786Y-63760860D01*
X146266856Y-64068460D01*
X146270583Y-64076475D01*
X146398780Y-64401660D01*
X146401526Y-64410063D01*
X146490038Y-64748237D01*
X146491761Y-64756907D01*
X146539389Y-65103748D01*
X146540040Y-65111472D01*
X146545561Y-65285746D01*
X146545597Y-65287732D01*
X146549999Y-66199792D01*
X146550000Y-66200149D01*
X146550000Y-114502262D01*
X146549993Y-114503299D01*
X146547693Y-114667351D01*
X146547235Y-114674599D01*
X146510446Y-115001113D01*
X146509056Y-115009294D01*
X146436054Y-115329138D01*
X146433756Y-115337113D01*
X146325406Y-115646757D01*
X146322231Y-115654423D01*
X146179889Y-115950000D01*
X146175875Y-115957263D01*
X146001336Y-116235040D01*
X145996534Y-116241808D01*
X145791990Y-116498299D01*
X145786460Y-116504487D01*
X145554487Y-116736460D01*
X145548299Y-116741990D01*
X145291808Y-116946534D01*
X145285040Y-116951336D01*
X145007263Y-117125875D01*
X145000000Y-117129889D01*
X144704423Y-117272231D01*
X144696757Y-117275406D01*
X144387113Y-117383756D01*
X144379138Y-117386054D01*
X144059294Y-117459056D01*
X144051113Y-117460446D01*
X143724599Y-117497235D01*
X143717351Y-117497693D01*
X143553331Y-117499992D01*
X143552235Y-117499999D01*
X116842058Y-117478642D01*
X116789749Y-117456926D01*
X116768118Y-117404788D01*
X116761743Y-114101582D01*
X141899500Y-114101582D01*
X141899500Y-114298417D01*
X141930290Y-114492823D01*
X141930293Y-114492836D01*
X141991113Y-114680019D01*
X142080475Y-114855404D01*
X142192283Y-115009294D01*
X142196172Y-115014646D01*
X142335354Y-115153828D01*
X142494595Y-115269524D01*
X142669975Y-115358884D01*
X142669977Y-115358884D01*
X142669980Y-115358886D01*
X142857163Y-115419706D01*
X142857169Y-115419707D01*
X142857174Y-115419709D01*
X142986780Y-115440236D01*
X143051582Y-115450500D01*
X143051583Y-115450500D01*
X143248418Y-115450500D01*
X143297019Y-115442802D01*
X143442826Y-115419709D01*
X143442833Y-115419706D01*
X143442836Y-115419706D01*
X143630019Y-115358886D01*
X143630019Y-115358885D01*
X143630025Y-115358884D01*
X143805405Y-115269524D01*
X143964646Y-115153828D01*
X144103828Y-115014646D01*
X144219524Y-114855405D01*
X144308884Y-114680025D01*
X144369709Y-114492826D01*
X144400500Y-114298417D01*
X144400500Y-114101583D01*
X144369709Y-113907174D01*
X144369707Y-113907169D01*
X144369706Y-113907163D01*
X144308886Y-113719980D01*
X144308884Y-113719977D01*
X144308884Y-113719975D01*
X144219524Y-113544595D01*
X144212806Y-113535349D01*
X144103831Y-113385358D01*
X144103830Y-113385357D01*
X144103828Y-113385354D01*
X143964646Y-113246172D01*
X143964643Y-113246169D01*
X143964641Y-113246168D01*
X143805404Y-113130475D01*
X143630019Y-113041113D01*
X143442836Y-112980293D01*
X143442823Y-112980290D01*
X143248418Y-112949500D01*
X143248417Y-112949500D01*
X143051583Y-112949500D01*
X143051582Y-112949500D01*
X142857176Y-112980290D01*
X142857163Y-112980293D01*
X142669980Y-113041113D01*
X142494595Y-113130475D01*
X142335358Y-113246168D01*
X142196168Y-113385358D01*
X142080475Y-113544595D01*
X141991113Y-113719980D01*
X141930293Y-113907163D01*
X141930290Y-113907176D01*
X141899500Y-114101582D01*
X116761743Y-114101582D01*
X116757861Y-112090000D01*
X117444417Y-112090000D01*
X117464700Y-112295934D01*
X117524768Y-112493954D01*
X117622315Y-112676450D01*
X117753590Y-112836410D01*
X117913550Y-112967685D01*
X118096046Y-113065232D01*
X118294066Y-113125300D01*
X118500000Y-113145583D01*
X118705934Y-113125300D01*
X118903954Y-113065232D01*
X119086450Y-112967685D01*
X119246410Y-112836410D01*
X119377685Y-112676450D01*
X119475232Y-112493954D01*
X119535300Y-112295934D01*
X119555583Y-112090000D01*
X119535300Y-111884066D01*
X119475232Y-111686046D01*
X119377685Y-111503550D01*
X119246410Y-111343590D01*
X119086450Y-111212315D01*
X118903954Y-111114768D01*
X118792158Y-111080855D01*
X118705935Y-111054700D01*
X118500000Y-111034417D01*
X118294064Y-111054700D01*
X118121616Y-111107011D01*
X118113024Y-111109618D01*
X118096043Y-111114769D01*
X117913549Y-111212315D01*
X117753590Y-111343589D01*
X117753589Y-111343590D01*
X117622315Y-111503549D01*
X117524769Y-111686043D01*
X117464700Y-111884064D01*
X117464700Y-111884066D01*
X117444417Y-112090000D01*
X116757861Y-112090000D01*
X116752959Y-109550000D01*
X117444417Y-109550000D01*
X117464700Y-109755934D01*
X117524768Y-109953954D01*
X117622315Y-110136450D01*
X117753590Y-110296410D01*
X117913550Y-110427685D01*
X118096046Y-110525232D01*
X118294066Y-110585300D01*
X118500000Y-110605583D01*
X118705934Y-110585300D01*
X118903954Y-110525232D01*
X119086450Y-110427685D01*
X119246410Y-110296410D01*
X119377685Y-110136450D01*
X119475232Y-109953954D01*
X119535300Y-109755934D01*
X119555583Y-109550000D01*
X119535300Y-109344066D01*
X119475232Y-109146046D01*
X119377685Y-108963550D01*
X119246410Y-108803590D01*
X119086450Y-108672315D01*
X118903954Y-108574768D01*
X118792158Y-108540855D01*
X118705935Y-108514700D01*
X118500000Y-108494417D01*
X118294064Y-108514700D01*
X118096043Y-108574769D01*
X117913549Y-108672315D01*
X117753590Y-108803589D01*
X117753589Y-108803590D01*
X117622315Y-108963549D01*
X117524769Y-109146043D01*
X117464700Y-109344064D01*
X117464700Y-109344066D01*
X117444417Y-109550000D01*
X116752959Y-109550000D01*
X116745388Y-105627000D01*
X131761318Y-105627000D01*
X131781955Y-105783760D01*
X131781955Y-105783761D01*
X131842464Y-105929841D01*
X131938715Y-106055279D01*
X131938720Y-106055284D01*
X131982487Y-106088867D01*
X132064159Y-106151536D01*
X132210238Y-106212044D01*
X132367000Y-106232682D01*
X132523762Y-106212044D01*
X132669841Y-106151536D01*
X132795282Y-106055282D01*
X132891536Y-105929841D01*
X132952044Y-105783762D01*
X132972682Y-105627000D01*
X132952044Y-105470238D01*
X132891536Y-105324159D01*
X132877932Y-105306430D01*
X132832792Y-105247601D01*
X132817500Y-105202553D01*
X132817500Y-103066255D01*
X132839174Y-103013929D01*
X132915464Y-102937639D01*
X133043923Y-102809179D01*
X133086589Y-102788139D01*
X133182262Y-102775544D01*
X133328341Y-102715036D01*
X133453782Y-102618782D01*
X133550036Y-102493341D01*
X133610544Y-102347262D01*
X133615450Y-102309994D01*
X138594723Y-102309994D01*
X138594723Y-102310005D01*
X138613792Y-102527974D01*
X138613793Y-102527980D01*
X138670422Y-102739322D01*
X138670424Y-102739326D01*
X138670425Y-102739330D01*
X138762898Y-102937639D01*
X138888402Y-103116877D01*
X139043123Y-103271598D01*
X139222361Y-103397102D01*
X139353887Y-103458434D01*
X139392150Y-103500191D01*
X139389680Y-103556774D01*
X139347922Y-103595037D01*
X139322613Y-103599500D01*
X138780252Y-103599500D01*
X138751010Y-103605316D01*
X138721767Y-103611133D01*
X138655449Y-103655447D01*
X138655447Y-103655449D01*
X138611133Y-103721767D01*
X138599500Y-103780253D01*
X138599500Y-105919746D01*
X138611133Y-105978232D01*
X138640608Y-106022343D01*
X138655448Y-106044552D01*
X138699560Y-106074027D01*
X138721767Y-106088866D01*
X138721768Y-106088866D01*
X138721769Y-106088867D01*
X138780252Y-106100500D01*
X138780254Y-106100500D01*
X140919746Y-106100500D01*
X140919748Y-106100500D01*
X140978231Y-106088867D01*
X141044552Y-106044552D01*
X141088867Y-105978231D01*
X141100500Y-105919748D01*
X141100500Y-103780252D01*
X141088867Y-103721769D01*
X141044552Y-103655448D01*
X141022343Y-103640608D01*
X140978232Y-103611133D01*
X140978233Y-103611133D01*
X140948989Y-103605316D01*
X140919748Y-103599500D01*
X140377387Y-103599500D01*
X140325061Y-103577826D01*
X140303387Y-103525500D01*
X140325061Y-103473174D01*
X140346110Y-103458434D01*
X140477639Y-103397102D01*
X140656877Y-103271598D01*
X140811598Y-103116877D01*
X140937102Y-102937639D01*
X141029575Y-102739330D01*
X141086207Y-102527977D01*
X141096906Y-102405681D01*
X141105277Y-102310005D01*
X141105277Y-102309994D01*
X141086207Y-102092025D01*
X141086206Y-102092019D01*
X141029577Y-101880677D01*
X141029576Y-101880676D01*
X141029575Y-101880670D01*
X140937102Y-101682362D01*
X140811598Y-101503123D01*
X140656877Y-101348402D01*
X140656874Y-101348400D01*
X140656875Y-101348400D01*
X140576989Y-101292464D01*
X140477639Y-101222898D01*
X140279330Y-101130425D01*
X140279326Y-101130424D01*
X140279322Y-101130422D01*
X140067980Y-101073793D01*
X140067974Y-101073792D01*
X139850005Y-101054723D01*
X139849995Y-101054723D01*
X139632025Y-101073792D01*
X139632019Y-101073793D01*
X139420677Y-101130422D01*
X139420670Y-101130424D01*
X139420670Y-101130425D01*
X139222362Y-101222898D01*
X139209426Y-101231956D01*
X139043122Y-101348402D01*
X138888402Y-101503122D01*
X138872353Y-101526043D01*
X138762898Y-101682362D01*
X138700115Y-101817000D01*
X138670427Y-101880666D01*
X138670422Y-101880677D01*
X138613793Y-102092019D01*
X138613792Y-102092025D01*
X138594723Y-102309994D01*
X133615450Y-102309994D01*
X133631182Y-102190500D01*
X133610544Y-102033738D01*
X133550036Y-101887659D01*
X133453782Y-101762218D01*
X133453779Y-101762215D01*
X133328341Y-101665964D01*
X133182261Y-101605455D01*
X133025500Y-101584818D01*
X132868739Y-101605455D01*
X132868738Y-101605455D01*
X132722658Y-101665964D01*
X132597220Y-101762215D01*
X132597215Y-101762220D01*
X132500964Y-101887658D01*
X132440455Y-102033738D01*
X132427859Y-102129410D01*
X132406818Y-102172076D01*
X132006509Y-102572387D01*
X131947201Y-102675111D01*
X131947200Y-102675114D01*
X131943431Y-102689177D01*
X131943432Y-102689178D01*
X131916500Y-102789691D01*
X131916500Y-105202553D01*
X131901208Y-105247601D01*
X131842464Y-105324158D01*
X131781955Y-105470238D01*
X131781955Y-105470239D01*
X131761318Y-105627000D01*
X116745388Y-105627000D01*
X116743867Y-104838797D01*
X116743866Y-104838796D01*
X102418267Y-104762596D01*
X102442967Y-117392924D01*
X102421395Y-117445292D01*
X102369112Y-117467069D01*
X102368908Y-117467069D01*
X81019786Y-117450000D01*
X81018847Y-117449993D01*
X80854805Y-117447780D01*
X80847519Y-117447322D01*
X80521006Y-117410537D01*
X80512824Y-117409147D01*
X80192975Y-117336147D01*
X80185001Y-117333850D01*
X79875332Y-117225496D01*
X79867665Y-117222320D01*
X79572081Y-117079978D01*
X79564818Y-117075964D01*
X79287029Y-116901421D01*
X79280261Y-116896619D01*
X79023754Y-116692064D01*
X79017567Y-116686534D01*
X78785586Y-116454557D01*
X78780056Y-116448369D01*
X78575507Y-116191874D01*
X78570705Y-116185107D01*
X78396158Y-115907322D01*
X78392143Y-115900059D01*
X78249790Y-115604463D01*
X78246615Y-115596796D01*
X78215854Y-115508886D01*
X78138259Y-115287136D01*
X78135966Y-115279178D01*
X78062957Y-114959304D01*
X78061570Y-114951142D01*
X78024779Y-114624621D01*
X78024322Y-114617321D01*
X78022144Y-114453168D01*
X78022139Y-114452484D01*
X78022106Y-114251582D01*
X79799500Y-114251582D01*
X79799500Y-114448417D01*
X79830290Y-114642823D01*
X79830293Y-114642836D01*
X79891113Y-114830019D01*
X79980475Y-115005404D01*
X80088308Y-115153823D01*
X80096172Y-115164646D01*
X80235354Y-115303828D01*
X80394595Y-115419524D01*
X80569975Y-115508884D01*
X80569977Y-115508884D01*
X80569980Y-115508886D01*
X80757163Y-115569706D01*
X80757169Y-115569707D01*
X80757174Y-115569709D01*
X80886780Y-115590236D01*
X80951582Y-115600500D01*
X80951583Y-115600500D01*
X81148418Y-115600500D01*
X81197019Y-115592802D01*
X81342826Y-115569709D01*
X81342833Y-115569706D01*
X81342836Y-115569706D01*
X81530019Y-115508886D01*
X81530019Y-115508885D01*
X81530025Y-115508884D01*
X81705405Y-115419524D01*
X81864646Y-115303828D01*
X82003828Y-115164646D01*
X82119524Y-115005405D01*
X82208884Y-114830025D01*
X82259385Y-114674599D01*
X82269706Y-114642836D01*
X82269706Y-114642833D01*
X82269709Y-114642826D01*
X82300500Y-114448417D01*
X82300500Y-114251583D01*
X82269709Y-114057174D01*
X82269707Y-114057169D01*
X82269706Y-114057163D01*
X82208886Y-113869980D01*
X82208884Y-113869977D01*
X82208884Y-113869975D01*
X82119524Y-113694595D01*
X82003828Y-113535354D01*
X81864646Y-113396172D01*
X81864643Y-113396169D01*
X81864641Y-113396168D01*
X81705404Y-113280475D01*
X81530019Y-113191113D01*
X81342836Y-113130293D01*
X81342823Y-113130290D01*
X81148418Y-113099500D01*
X81148417Y-113099500D01*
X80951583Y-113099500D01*
X80951582Y-113099500D01*
X80757176Y-113130290D01*
X80757163Y-113130293D01*
X80569980Y-113191113D01*
X80394595Y-113280475D01*
X80235358Y-113396168D01*
X80096168Y-113535358D01*
X79980475Y-113694595D01*
X79891113Y-113869980D01*
X79830293Y-114057163D01*
X79830290Y-114057176D01*
X79799500Y-114251582D01*
X78022106Y-114251582D01*
X78021753Y-112090000D01*
X99664417Y-112090000D01*
X99684700Y-112295934D01*
X99744768Y-112493954D01*
X99842315Y-112676450D01*
X99973590Y-112836410D01*
X100133550Y-112967685D01*
X100316046Y-113065232D01*
X100514066Y-113125300D01*
X100720000Y-113145583D01*
X100925934Y-113125300D01*
X101123954Y-113065232D01*
X101306450Y-112967685D01*
X101466410Y-112836410D01*
X101597685Y-112676450D01*
X101695232Y-112493954D01*
X101755300Y-112295934D01*
X101775583Y-112090000D01*
X101755300Y-111884066D01*
X101695232Y-111686046D01*
X101597685Y-111503550D01*
X101466410Y-111343590D01*
X101306450Y-111212315D01*
X101123954Y-111114768D01*
X101012158Y-111080855D01*
X100925935Y-111054700D01*
X100720000Y-111034417D01*
X100514064Y-111054700D01*
X100341616Y-111107011D01*
X100333024Y-111109618D01*
X100316043Y-111114769D01*
X100133549Y-111212315D01*
X99973590Y-111343589D01*
X99973589Y-111343590D01*
X99842315Y-111503549D01*
X99744769Y-111686043D01*
X99684700Y-111884064D01*
X99684700Y-111884066D01*
X99664417Y-112090000D01*
X78021753Y-112090000D01*
X78021404Y-109949996D01*
X84694357Y-109949996D01*
X84694357Y-109950003D01*
X84714883Y-110171524D01*
X84714885Y-110171537D01*
X84750414Y-110296410D01*
X84775771Y-110385528D01*
X84796763Y-110427685D01*
X84874942Y-110584690D01*
X84874944Y-110584693D01*
X85006356Y-110758710D01*
X85009019Y-110762236D01*
X85173438Y-110912124D01*
X85362599Y-111029247D01*
X85570060Y-111109618D01*
X85788757Y-111150500D01*
X86011243Y-111150500D01*
X86229940Y-111109618D01*
X86437401Y-111029247D01*
X86626562Y-110912124D01*
X86790981Y-110762236D01*
X86925058Y-110584689D01*
X87024229Y-110385528D01*
X87085115Y-110171536D01*
X87091009Y-110107927D01*
X87105643Y-109950003D01*
X87105643Y-109949996D01*
X91194357Y-109949996D01*
X91194357Y-109950003D01*
X91214883Y-110171524D01*
X91214885Y-110171537D01*
X91250414Y-110296410D01*
X91275771Y-110385528D01*
X91296763Y-110427685D01*
X91374942Y-110584690D01*
X91374944Y-110584693D01*
X91506356Y-110758710D01*
X91509019Y-110762236D01*
X91673438Y-110912124D01*
X91862599Y-111029247D01*
X92070060Y-111109618D01*
X92288757Y-111150500D01*
X92511243Y-111150500D01*
X92729940Y-111109618D01*
X92937401Y-111029247D01*
X93126562Y-110912124D01*
X93290981Y-110762236D01*
X93425058Y-110584689D01*
X93524229Y-110385528D01*
X93585115Y-110171536D01*
X93591009Y-110107927D01*
X93605643Y-109950003D01*
X93605643Y-109949996D01*
X93585116Y-109728475D01*
X93585115Y-109728464D01*
X93534338Y-109550000D01*
X99664417Y-109550000D01*
X99684700Y-109755934D01*
X99744768Y-109953954D01*
X99842315Y-110136450D01*
X99973590Y-110296410D01*
X100133550Y-110427685D01*
X100316046Y-110525232D01*
X100514066Y-110585300D01*
X100720000Y-110605583D01*
X100925934Y-110585300D01*
X101123954Y-110525232D01*
X101306450Y-110427685D01*
X101466410Y-110296410D01*
X101597685Y-110136450D01*
X101695232Y-109953954D01*
X101755300Y-109755934D01*
X101775583Y-109550000D01*
X101755300Y-109344066D01*
X101695232Y-109146046D01*
X101597685Y-108963550D01*
X101466410Y-108803590D01*
X101306450Y-108672315D01*
X101123954Y-108574768D01*
X101012158Y-108540855D01*
X100925935Y-108514700D01*
X100720000Y-108494417D01*
X100514064Y-108514700D01*
X100316043Y-108574769D01*
X100133549Y-108672315D01*
X99973590Y-108803589D01*
X99973589Y-108803590D01*
X99842315Y-108963549D01*
X99744769Y-109146043D01*
X99684700Y-109344064D01*
X99684700Y-109344066D01*
X99664417Y-109550000D01*
X93534338Y-109550000D01*
X93524229Y-109514472D01*
X93425058Y-109315311D01*
X93425057Y-109315310D01*
X93425057Y-109315309D01*
X93425055Y-109315306D01*
X93290983Y-109137767D01*
X93290981Y-109137764D01*
X93126562Y-108987876D01*
X92937401Y-108870753D01*
X92876168Y-108847031D01*
X92729942Y-108790382D01*
X92511246Y-108749500D01*
X92511243Y-108749500D01*
X92288757Y-108749500D01*
X92288753Y-108749500D01*
X92070057Y-108790382D01*
X91862604Y-108870751D01*
X91862599Y-108870753D01*
X91862594Y-108870755D01*
X91862594Y-108870756D01*
X91673440Y-108987874D01*
X91509016Y-109137767D01*
X91374944Y-109315306D01*
X91374942Y-109315309D01*
X91275771Y-109514472D01*
X91275769Y-109514477D01*
X91214885Y-109728462D01*
X91214883Y-109728475D01*
X91194357Y-109949996D01*
X87105643Y-109949996D01*
X87085116Y-109728475D01*
X87085115Y-109728464D01*
X87024229Y-109514472D01*
X86925058Y-109315311D01*
X86925057Y-109315310D01*
X86925057Y-109315309D01*
X86925055Y-109315306D01*
X86790983Y-109137767D01*
X86790981Y-109137764D01*
X86626562Y-108987876D01*
X86437401Y-108870753D01*
X86376168Y-108847031D01*
X86229942Y-108790382D01*
X86011246Y-108749500D01*
X86011243Y-108749500D01*
X85788757Y-108749500D01*
X85788753Y-108749500D01*
X85570057Y-108790382D01*
X85362604Y-108870751D01*
X85362599Y-108870753D01*
X85362594Y-108870755D01*
X85362594Y-108870756D01*
X85173440Y-108987874D01*
X85009016Y-109137767D01*
X84874944Y-109315306D01*
X84874942Y-109315309D01*
X84775771Y-109514472D01*
X84775769Y-109514477D01*
X84714885Y-109728462D01*
X84714883Y-109728475D01*
X84694357Y-109949996D01*
X78021404Y-109949996D01*
X78020510Y-104470000D01*
X99664417Y-104470000D01*
X99684700Y-104675934D01*
X99744768Y-104873954D01*
X99842315Y-105056450D01*
X99973590Y-105216410D01*
X100133550Y-105347685D01*
X100316046Y-105445232D01*
X100514066Y-105505300D01*
X100720000Y-105525583D01*
X100925934Y-105505300D01*
X101123954Y-105445232D01*
X101306450Y-105347685D01*
X101466410Y-105216410D01*
X101597685Y-105056450D01*
X101695232Y-104873954D01*
X101755300Y-104675934D01*
X101775583Y-104470000D01*
X117444417Y-104470000D01*
X117464700Y-104675934D01*
X117524768Y-104873954D01*
X117622315Y-105056450D01*
X117753590Y-105216410D01*
X117913550Y-105347685D01*
X118096046Y-105445232D01*
X118294066Y-105505300D01*
X118500000Y-105525583D01*
X118705934Y-105505300D01*
X118903954Y-105445232D01*
X119086450Y-105347685D01*
X119246410Y-105216410D01*
X119377685Y-105056450D01*
X119475232Y-104873954D01*
X119535300Y-104675934D01*
X119555583Y-104470000D01*
X119535300Y-104264066D01*
X119475232Y-104066046D01*
X119377685Y-103883550D01*
X119246410Y-103723590D01*
X119163379Y-103655449D01*
X119086450Y-103592315D01*
X118903956Y-103494769D01*
X118903955Y-103494768D01*
X118903954Y-103494768D01*
X118784172Y-103458433D01*
X118705935Y-103434700D01*
X118500000Y-103414417D01*
X118294064Y-103434700D01*
X118096043Y-103494769D01*
X117913549Y-103592315D01*
X117753590Y-103723589D01*
X117753589Y-103723590D01*
X117622315Y-103883549D01*
X117524769Y-104066043D01*
X117464700Y-104264064D01*
X117464700Y-104264066D01*
X117444417Y-104470000D01*
X101775583Y-104470000D01*
X101755300Y-104264066D01*
X101695232Y-104066046D01*
X101597685Y-103883550D01*
X101466410Y-103723590D01*
X101383379Y-103655449D01*
X101306450Y-103592315D01*
X101123956Y-103494769D01*
X101123955Y-103494768D01*
X101123954Y-103494768D01*
X101004172Y-103458433D01*
X100925935Y-103434700D01*
X100720000Y-103414417D01*
X100514064Y-103434700D01*
X100316043Y-103494769D01*
X100133549Y-103592315D01*
X99973590Y-103723589D01*
X99973589Y-103723590D01*
X99842315Y-103883549D01*
X99744769Y-104066043D01*
X99684700Y-104264064D01*
X99684700Y-104264066D01*
X99664417Y-104470000D01*
X78020510Y-104470000D01*
X78020095Y-101930000D01*
X99664417Y-101930000D01*
X99684700Y-102135935D01*
X99690275Y-102154314D01*
X99737503Y-102310005D01*
X99744769Y-102333956D01*
X99842315Y-102516450D01*
X99972525Y-102675113D01*
X99973590Y-102676410D01*
X100133550Y-102807685D01*
X100316046Y-102905232D01*
X100514066Y-102965300D01*
X100720000Y-102985583D01*
X100925934Y-102965300D01*
X101123954Y-102905232D01*
X101306450Y-102807685D01*
X101466410Y-102676410D01*
X101597685Y-102516450D01*
X101695232Y-102333954D01*
X101755300Y-102135934D01*
X101775583Y-101930000D01*
X117444417Y-101930000D01*
X117464700Y-102135935D01*
X117470275Y-102154314D01*
X117517503Y-102310005D01*
X117524769Y-102333956D01*
X117622315Y-102516450D01*
X117752525Y-102675113D01*
X117753590Y-102676410D01*
X117913550Y-102807685D01*
X118096046Y-102905232D01*
X118294066Y-102965300D01*
X118500000Y-102985583D01*
X118705934Y-102965300D01*
X118903954Y-102905232D01*
X119086450Y-102807685D01*
X119246410Y-102676410D01*
X119377685Y-102516450D01*
X119475232Y-102333954D01*
X119535300Y-102135934D01*
X119555583Y-101930000D01*
X119542779Y-101800000D01*
X123194318Y-101800000D01*
X123214955Y-101956760D01*
X123214955Y-101956761D01*
X123275464Y-102102841D01*
X123371715Y-102228279D01*
X123371720Y-102228284D01*
X123393875Y-102245284D01*
X123497159Y-102324536D01*
X123643238Y-102385044D01*
X123800000Y-102405682D01*
X123956762Y-102385044D01*
X124102841Y-102324536D01*
X124228282Y-102228282D01*
X124271410Y-102172076D01*
X124284934Y-102154452D01*
X124333983Y-102126133D01*
X124343642Y-102125500D01*
X125460314Y-102125500D01*
X125512640Y-102147174D01*
X125519022Y-102154452D01*
X125588717Y-102245281D01*
X125588722Y-102245286D01*
X125673060Y-102310000D01*
X125714159Y-102341536D01*
X125860238Y-102402044D01*
X126017000Y-102422682D01*
X126173762Y-102402044D01*
X126319841Y-102341536D01*
X126445282Y-102245282D01*
X126541536Y-102119841D01*
X126602044Y-101973762D01*
X126622682Y-101817000D01*
X126602044Y-101660238D01*
X126541536Y-101514159D01*
X126445282Y-101388718D01*
X126445279Y-101388715D01*
X126319841Y-101292464D01*
X126173761Y-101231955D01*
X126017000Y-101211318D01*
X125860239Y-101231955D01*
X125860238Y-101231955D01*
X125714158Y-101292464D01*
X125588722Y-101388713D01*
X125588717Y-101388718D01*
X125545111Y-101445548D01*
X125496062Y-101473867D01*
X125486403Y-101474500D01*
X124343642Y-101474500D01*
X124291316Y-101452826D01*
X124284934Y-101445548D01*
X124228284Y-101371720D01*
X124228279Y-101371715D01*
X124102841Y-101275464D01*
X123956761Y-101214955D01*
X123800000Y-101194318D01*
X123643239Y-101214955D01*
X123643238Y-101214955D01*
X123497158Y-101275464D01*
X123371720Y-101371715D01*
X123371715Y-101371720D01*
X123275464Y-101497158D01*
X123214955Y-101643238D01*
X123214955Y-101643239D01*
X123194318Y-101800000D01*
X119542779Y-101800000D01*
X119535300Y-101724066D01*
X119475232Y-101526046D01*
X119377685Y-101343550D01*
X119246410Y-101183590D01*
X119086450Y-101052315D01*
X118903954Y-100954768D01*
X118792158Y-100920855D01*
X118705935Y-100894700D01*
X118500000Y-100874417D01*
X118294064Y-100894700D01*
X118096043Y-100954769D01*
X117913549Y-101052315D01*
X117753590Y-101183589D01*
X117753589Y-101183590D01*
X117622315Y-101343549D01*
X117524769Y-101526043D01*
X117464700Y-101724064D01*
X117444417Y-101930000D01*
X101775583Y-101930000D01*
X101755300Y-101724066D01*
X101695232Y-101526046D01*
X101597685Y-101343550D01*
X101466410Y-101183590D01*
X101306450Y-101052315D01*
X101123954Y-100954768D01*
X101012158Y-100920855D01*
X100925935Y-100894700D01*
X100720000Y-100874417D01*
X100514064Y-100894700D01*
X100316043Y-100954769D01*
X100133549Y-101052315D01*
X99973590Y-101183589D01*
X99973589Y-101183590D01*
X99842315Y-101343549D01*
X99744769Y-101526043D01*
X99684700Y-101724064D01*
X99664417Y-101930000D01*
X78020095Y-101930000D01*
X78019681Y-99390000D01*
X99664417Y-99390000D01*
X99684700Y-99595935D01*
X99710855Y-99682158D01*
X99744768Y-99793954D01*
X99842315Y-99976450D01*
X99973590Y-100136410D01*
X100133550Y-100267685D01*
X100316046Y-100365232D01*
X100514066Y-100425300D01*
X100720000Y-100445583D01*
X100925934Y-100425300D01*
X101123954Y-100365232D01*
X101306450Y-100267685D01*
X101466410Y-100136410D01*
X101597685Y-99976450D01*
X101695232Y-99793954D01*
X101755300Y-99595934D01*
X101775583Y-99390000D01*
X117444417Y-99390000D01*
X117464700Y-99595935D01*
X117490855Y-99682158D01*
X117524768Y-99793954D01*
X117622315Y-99976450D01*
X117753590Y-100136410D01*
X117913550Y-100267685D01*
X118096046Y-100365232D01*
X118294066Y-100425300D01*
X118500000Y-100445583D01*
X118705934Y-100425300D01*
X118903954Y-100365232D01*
X119086450Y-100267685D01*
X119246410Y-100136410D01*
X119377685Y-99976450D01*
X119391823Y-99950000D01*
X123144318Y-99950000D01*
X123164955Y-100106760D01*
X123164955Y-100106761D01*
X123225464Y-100252841D01*
X123321715Y-100378279D01*
X123321720Y-100378284D01*
X123332003Y-100386174D01*
X123447159Y-100474536D01*
X123593238Y-100535044D01*
X123750000Y-100555682D01*
X123906762Y-100535044D01*
X124052841Y-100474536D01*
X124176314Y-100379791D01*
X124221362Y-100364500D01*
X125727358Y-100364500D01*
X125779684Y-100386174D01*
X125786066Y-100393452D01*
X125842715Y-100467279D01*
X125842720Y-100467284D01*
X125926345Y-100531451D01*
X125968159Y-100563536D01*
X126114238Y-100624044D01*
X126271000Y-100644682D01*
X126427762Y-100624044D01*
X126573841Y-100563536D01*
X126699282Y-100467282D01*
X126795536Y-100341841D01*
X126856044Y-100195762D01*
X126876682Y-100039000D01*
X126856044Y-99882238D01*
X126795536Y-99736159D01*
X126727244Y-99647159D01*
X126699284Y-99610720D01*
X126699279Y-99610715D01*
X126573840Y-99514463D01*
X126561135Y-99509200D01*
X126521088Y-99469150D01*
X126521090Y-99412513D01*
X126561140Y-99372466D01*
X126579792Y-99367468D01*
X126681762Y-99354044D01*
X126827841Y-99293536D01*
X126953282Y-99197282D01*
X127049536Y-99071841D01*
X127110044Y-98925762D01*
X127130682Y-98769000D01*
X127110044Y-98612238D01*
X127049536Y-98466159D01*
X126953282Y-98340718D01*
X126953279Y-98340715D01*
X126827841Y-98244464D01*
X126681761Y-98183955D01*
X126525000Y-98163318D01*
X126368239Y-98183955D01*
X126368238Y-98183955D01*
X126222158Y-98244464D01*
X126096720Y-98340715D01*
X126096715Y-98340720D01*
X126040066Y-98414548D01*
X125991017Y-98442867D01*
X125981358Y-98443500D01*
X124484598Y-98443500D01*
X124432272Y-98421826D01*
X124416231Y-98397819D01*
X124398370Y-98354700D01*
X124374536Y-98297159D01*
X124278282Y-98171718D01*
X124278279Y-98171715D01*
X124152841Y-98075464D01*
X124006761Y-98014955D01*
X123850000Y-97994318D01*
X123693239Y-98014955D01*
X123693238Y-98014955D01*
X123547158Y-98075464D01*
X123421720Y-98171715D01*
X123421715Y-98171720D01*
X123325464Y-98297158D01*
X123264955Y-98443238D01*
X123264955Y-98443239D01*
X123244318Y-98600000D01*
X123264955Y-98756760D01*
X123264955Y-98756761D01*
X123325464Y-98902841D01*
X123421715Y-99028279D01*
X123421720Y-99028284D01*
X123478485Y-99071841D01*
X123547159Y-99124536D01*
X123693238Y-99185044D01*
X123850000Y-99205682D01*
X124006762Y-99185044D01*
X124152841Y-99124536D01*
X124172056Y-99109791D01*
X124217104Y-99094500D01*
X125981358Y-99094500D01*
X126033684Y-99116174D01*
X126040066Y-99123452D01*
X126096715Y-99197279D01*
X126096720Y-99197284D01*
X126107665Y-99205682D01*
X126222159Y-99293536D01*
X126231206Y-99297283D01*
X126234862Y-99298798D01*
X126274910Y-99338847D01*
X126274910Y-99395484D01*
X126234861Y-99435532D01*
X126216202Y-99440532D01*
X126114239Y-99453955D01*
X126114238Y-99453955D01*
X125968158Y-99514464D01*
X125842720Y-99610715D01*
X125842715Y-99610720D01*
X125786066Y-99684548D01*
X125737017Y-99712867D01*
X125727358Y-99713500D01*
X124351460Y-99713500D01*
X124299134Y-99691826D01*
X124283093Y-99667818D01*
X124274536Y-99647160D01*
X124274534Y-99647156D01*
X124178284Y-99521720D01*
X124178279Y-99521715D01*
X124052841Y-99425464D01*
X123906761Y-99364955D01*
X123750000Y-99344318D01*
X123593239Y-99364955D01*
X123593238Y-99364955D01*
X123447158Y-99425464D01*
X123321720Y-99521715D01*
X123321715Y-99521720D01*
X123225464Y-99647158D01*
X123164955Y-99793238D01*
X123164955Y-99793239D01*
X123144318Y-99950000D01*
X119391823Y-99950000D01*
X119475232Y-99793954D01*
X119535300Y-99595934D01*
X119555583Y-99390000D01*
X119535300Y-99184066D01*
X119475232Y-98986046D01*
X119377685Y-98803550D01*
X119246410Y-98643590D01*
X119208208Y-98612239D01*
X119086450Y-98512315D01*
X118903956Y-98414769D01*
X118903955Y-98414768D01*
X118903954Y-98414768D01*
X118792158Y-98380855D01*
X118705935Y-98354700D01*
X118500000Y-98334417D01*
X118294064Y-98354700D01*
X118151920Y-98397819D01*
X118096772Y-98414548D01*
X118096043Y-98414769D01*
X117913549Y-98512315D01*
X117753590Y-98643589D01*
X117753589Y-98643590D01*
X117622315Y-98803549D01*
X117524769Y-98986043D01*
X117464700Y-99184064D01*
X117444417Y-99390000D01*
X101775583Y-99390000D01*
X101755300Y-99184066D01*
X101695232Y-98986046D01*
X101597685Y-98803550D01*
X101466410Y-98643590D01*
X101428208Y-98612239D01*
X101306450Y-98512315D01*
X101123956Y-98414769D01*
X101123955Y-98414768D01*
X101123954Y-98414768D01*
X101012158Y-98380855D01*
X100925935Y-98354700D01*
X100720000Y-98334417D01*
X100514064Y-98354700D01*
X100371920Y-98397819D01*
X100316772Y-98414548D01*
X100316043Y-98414769D01*
X100133549Y-98512315D01*
X99973590Y-98643589D01*
X99973589Y-98643590D01*
X99842315Y-98803549D01*
X99744769Y-98986043D01*
X99684700Y-99184064D01*
X99664417Y-99390000D01*
X78019681Y-99390000D01*
X78019266Y-96850000D01*
X99664417Y-96850000D01*
X99684700Y-97055934D01*
X99744768Y-97253954D01*
X99842315Y-97436450D01*
X99973590Y-97596410D01*
X100133550Y-97727685D01*
X100316046Y-97825232D01*
X100514066Y-97885300D01*
X100720000Y-97905583D01*
X100925934Y-97885300D01*
X101123954Y-97825232D01*
X101306450Y-97727685D01*
X101466410Y-97596410D01*
X101597685Y-97436450D01*
X101695232Y-97253954D01*
X101755300Y-97055934D01*
X101775583Y-96850000D01*
X117444417Y-96850000D01*
X117464700Y-97055934D01*
X117524768Y-97253954D01*
X117622315Y-97436450D01*
X117753590Y-97596410D01*
X117913550Y-97727685D01*
X118096046Y-97825232D01*
X118294066Y-97885300D01*
X118500000Y-97905583D01*
X118705934Y-97885300D01*
X118903954Y-97825232D01*
X119086450Y-97727685D01*
X119246410Y-97596410D01*
X119377685Y-97436450D01*
X119475232Y-97253954D01*
X119535300Y-97055934D01*
X119555583Y-96850000D01*
X119535300Y-96644066D01*
X119475232Y-96446046D01*
X119377685Y-96263550D01*
X119246410Y-96103590D01*
X119086450Y-95972315D01*
X118903954Y-95874768D01*
X118792158Y-95840855D01*
X118705935Y-95814700D01*
X118500000Y-95794417D01*
X118294064Y-95814700D01*
X118096043Y-95874769D01*
X117913549Y-95972315D01*
X117753590Y-96103589D01*
X117753589Y-96103590D01*
X117622315Y-96263549D01*
X117524769Y-96446043D01*
X117464700Y-96644064D01*
X117464700Y-96644066D01*
X117444417Y-96850000D01*
X101775583Y-96850000D01*
X101755300Y-96644066D01*
X101695232Y-96446046D01*
X101597685Y-96263550D01*
X101466410Y-96103590D01*
X101306450Y-95972315D01*
X101123954Y-95874768D01*
X101012158Y-95840855D01*
X100925935Y-95814700D01*
X100720000Y-95794417D01*
X100514064Y-95814700D01*
X100316043Y-95874769D01*
X100133549Y-95972315D01*
X99973590Y-96103589D01*
X99973589Y-96103590D01*
X99842315Y-96263549D01*
X99744769Y-96446043D01*
X99684700Y-96644064D01*
X99684700Y-96644066D01*
X99664417Y-96850000D01*
X78019266Y-96850000D01*
X78018729Y-93560000D01*
X109138517Y-93560000D01*
X109158800Y-93765934D01*
X109218868Y-93963954D01*
X109316415Y-94146450D01*
X109447690Y-94306410D01*
X109607650Y-94437685D01*
X109790146Y-94535232D01*
X109988166Y-94595300D01*
X110194100Y-94615583D01*
X110400034Y-94595300D01*
X110598054Y-94535232D01*
X110780550Y-94437685D01*
X110940510Y-94306410D01*
X111071785Y-94146450D01*
X111169332Y-93963954D01*
X111229400Y-93765934D01*
X111249683Y-93560000D01*
X111229400Y-93354066D01*
X111169332Y-93156046D01*
X111071785Y-92973550D01*
X110940510Y-92813590D01*
X110930407Y-92805299D01*
X110790223Y-92690253D01*
X111683600Y-92690253D01*
X111683600Y-94429746D01*
X111695233Y-94488232D01*
X111724708Y-94532343D01*
X111739548Y-94554552D01*
X111783660Y-94584027D01*
X111805867Y-94598866D01*
X111805868Y-94598866D01*
X111805869Y-94598867D01*
X111864352Y-94610500D01*
X111864354Y-94610500D01*
X113603846Y-94610500D01*
X113603848Y-94610500D01*
X113662331Y-94598867D01*
X113728652Y-94554552D01*
X113772967Y-94488231D01*
X113784600Y-94429748D01*
X113784600Y-93560000D01*
X114218517Y-93560000D01*
X114238800Y-93765934D01*
X114298868Y-93963954D01*
X114396415Y-94146450D01*
X114527690Y-94306410D01*
X114687650Y-94437685D01*
X114870146Y-94535232D01*
X115068166Y-94595300D01*
X115274100Y-94615583D01*
X115480034Y-94595300D01*
X115678054Y-94535232D01*
X115860550Y-94437685D01*
X116020510Y-94306410D01*
X116151785Y-94146450D01*
X116249332Y-93963954D01*
X116309400Y-93765934D01*
X116329683Y-93560000D01*
X116309400Y-93354066D01*
X116249332Y-93156046D01*
X116151785Y-92973550D01*
X116020510Y-92813590D01*
X116010407Y-92805299D01*
X115860550Y-92682315D01*
X115678056Y-92584769D01*
X115678055Y-92584768D01*
X115678054Y-92584768D01*
X115566258Y-92550855D01*
X115480035Y-92524700D01*
X115274100Y-92504417D01*
X115068164Y-92524700D01*
X114870143Y-92584769D01*
X114687649Y-92682315D01*
X114527690Y-92813589D01*
X114527689Y-92813590D01*
X114396415Y-92973549D01*
X114298869Y-93156043D01*
X114238800Y-93354064D01*
X114238800Y-93354066D01*
X114218517Y-93560000D01*
X113784600Y-93560000D01*
X113784600Y-92690252D01*
X113772967Y-92631769D01*
X113728652Y-92565448D01*
X113706443Y-92550608D01*
X113662332Y-92521133D01*
X113662333Y-92521133D01*
X113633089Y-92515316D01*
X113603848Y-92509500D01*
X111864352Y-92509500D01*
X111835110Y-92515316D01*
X111805867Y-92521133D01*
X111739549Y-92565447D01*
X111739547Y-92565449D01*
X111695233Y-92631767D01*
X111683600Y-92690253D01*
X110790223Y-92690253D01*
X110780550Y-92682315D01*
X110598056Y-92584769D01*
X110598055Y-92584768D01*
X110598054Y-92584768D01*
X110486258Y-92550855D01*
X110400035Y-92524700D01*
X110194100Y-92504417D01*
X109988164Y-92524700D01*
X109790143Y-92584769D01*
X109607649Y-92682315D01*
X109447690Y-92813589D01*
X109447689Y-92813590D01*
X109316415Y-92973549D01*
X109218869Y-93156043D01*
X109158800Y-93354064D01*
X109158800Y-93354066D01*
X109138517Y-93560000D01*
X78018729Y-93560000D01*
X78018437Y-91770000D01*
X99664417Y-91770000D01*
X99684700Y-91975935D01*
X99744769Y-92173956D01*
X99842315Y-92356450D01*
X99963747Y-92504417D01*
X99973590Y-92516410D01*
X100133550Y-92647685D01*
X100316046Y-92745232D01*
X100514066Y-92805300D01*
X100720000Y-92825583D01*
X100925934Y-92805300D01*
X101123954Y-92745232D01*
X101306450Y-92647685D01*
X101466410Y-92516410D01*
X101597685Y-92356450D01*
X101695232Y-92173954D01*
X101755300Y-91975934D01*
X101775583Y-91770000D01*
X117444417Y-91770000D01*
X117464700Y-91975935D01*
X117524769Y-92173956D01*
X117622315Y-92356450D01*
X117743747Y-92504417D01*
X117753590Y-92516410D01*
X117913550Y-92647685D01*
X118096046Y-92745232D01*
X118294066Y-92805300D01*
X118500000Y-92825583D01*
X118705934Y-92805300D01*
X118903954Y-92745232D01*
X119086450Y-92647685D01*
X119246410Y-92516410D01*
X119377685Y-92356450D01*
X119475232Y-92173954D01*
X119535300Y-91975934D01*
X119555583Y-91770000D01*
X119535300Y-91564066D01*
X119475232Y-91366046D01*
X119377685Y-91183550D01*
X119246410Y-91023590D01*
X119086450Y-90892315D01*
X118903954Y-90794768D01*
X118792158Y-90760855D01*
X118705935Y-90734700D01*
X118500000Y-90714417D01*
X118294064Y-90734700D01*
X118096043Y-90794769D01*
X117913549Y-90892315D01*
X117753590Y-91023589D01*
X117753589Y-91023590D01*
X117622315Y-91183549D01*
X117524769Y-91366043D01*
X117464700Y-91564064D01*
X117444417Y-91770000D01*
X101775583Y-91770000D01*
X101755300Y-91564066D01*
X101695232Y-91366046D01*
X101597685Y-91183550D01*
X101466410Y-91023590D01*
X101306450Y-90892315D01*
X101123954Y-90794768D01*
X101012158Y-90760855D01*
X100925935Y-90734700D01*
X100720000Y-90714417D01*
X100514064Y-90734700D01*
X100316043Y-90794769D01*
X100133549Y-90892315D01*
X99973590Y-91023589D01*
X99973589Y-91023590D01*
X99842315Y-91183549D01*
X99744769Y-91366043D01*
X99684700Y-91564064D01*
X99664417Y-91770000D01*
X78018437Y-91770000D01*
X78017585Y-86549996D01*
X91644906Y-86549996D01*
X91644906Y-86550003D01*
X91663214Y-86700790D01*
X91717078Y-86842818D01*
X91803368Y-86967830D01*
X91833597Y-86994611D01*
X91858390Y-87045533D01*
X91839914Y-87099072D01*
X91833597Y-87105389D01*
X91803368Y-87132169D01*
X91717078Y-87257181D01*
X91663214Y-87399209D01*
X91644906Y-87549996D01*
X91644906Y-87550003D01*
X91663214Y-87700790D01*
X91717078Y-87842818D01*
X91717079Y-87842819D01*
X91803367Y-87967829D01*
X91803369Y-87967831D01*
X91803370Y-87967833D01*
X91833595Y-87994610D01*
X91858389Y-88045531D01*
X91839913Y-88099070D01*
X91833596Y-88105388D01*
X91803368Y-88132168D01*
X91717078Y-88257180D01*
X91663214Y-88399208D01*
X91644906Y-88549995D01*
X91644906Y-88550002D01*
X91663214Y-88700789D01*
X91717078Y-88842817D01*
X91803368Y-88967829D01*
X91833597Y-88994610D01*
X91858390Y-89045532D01*
X91839914Y-89099071D01*
X91833598Y-89105387D01*
X91803368Y-89132169D01*
X91717078Y-89257181D01*
X91663214Y-89399209D01*
X91644906Y-89549996D01*
X91644906Y-89550003D01*
X91663214Y-89700790D01*
X91717079Y-89842820D01*
X91717081Y-89842823D01*
X91735744Y-89869861D01*
X91747632Y-89925236D01*
X91716881Y-89972798D01*
X91716013Y-89973388D01*
X91705449Y-89980447D01*
X91705448Y-89980448D01*
X91705447Y-89980449D01*
X91661133Y-90046767D01*
X91649500Y-90105253D01*
X91649500Y-90994746D01*
X91661133Y-91053232D01*
X91690608Y-91097343D01*
X91705448Y-91119552D01*
X91749560Y-91149027D01*
X91771767Y-91163866D01*
X91771768Y-91163866D01*
X91771769Y-91163867D01*
X91830252Y-91175500D01*
X91830254Y-91175500D01*
X92719746Y-91175500D01*
X92719748Y-91175500D01*
X92778231Y-91163867D01*
X92844552Y-91119552D01*
X92888867Y-91053231D01*
X92900500Y-90994748D01*
X92900500Y-90105252D01*
X92888867Y-90046769D01*
X92844552Y-89980448D01*
X92834039Y-89973423D01*
X92802576Y-89926331D01*
X92813628Y-89870782D01*
X92814173Y-89869978D01*
X92832921Y-89842819D01*
X92886785Y-89700791D01*
X92905094Y-89550000D01*
X92886785Y-89399209D01*
X92832921Y-89257181D01*
X92814159Y-89230000D01*
X99664417Y-89230000D01*
X99684700Y-89435934D01*
X99744768Y-89633954D01*
X99842315Y-89816450D01*
X99973590Y-89976410D01*
X100133550Y-90107685D01*
X100316046Y-90205232D01*
X100514066Y-90265300D01*
X100720000Y-90285583D01*
X100925934Y-90265300D01*
X101123954Y-90205232D01*
X101306450Y-90107685D01*
X101466410Y-89976410D01*
X101597685Y-89816450D01*
X101695232Y-89633954D01*
X101755300Y-89435934D01*
X101775583Y-89230000D01*
X117444417Y-89230000D01*
X117464700Y-89435934D01*
X117524768Y-89633954D01*
X117622315Y-89816450D01*
X117753590Y-89976410D01*
X117913550Y-90107685D01*
X118096046Y-90205232D01*
X118294066Y-90265300D01*
X118500000Y-90285583D01*
X118705934Y-90265300D01*
X118903954Y-90205232D01*
X119086450Y-90107685D01*
X119246410Y-89976410D01*
X119377685Y-89816450D01*
X119475232Y-89633954D01*
X119535300Y-89435934D01*
X119555583Y-89230000D01*
X119535300Y-89024066D01*
X119475232Y-88826046D01*
X119377685Y-88643550D01*
X119246410Y-88483590D01*
X119086450Y-88352315D01*
X118903956Y-88254769D01*
X118903955Y-88254768D01*
X118903954Y-88254768D01*
X118792158Y-88220855D01*
X118705935Y-88194700D01*
X118500000Y-88174417D01*
X118294064Y-88194700D01*
X118096043Y-88254769D01*
X117913549Y-88352315D01*
X117753590Y-88483589D01*
X117753589Y-88483590D01*
X117622315Y-88643549D01*
X117524769Y-88826043D01*
X117464700Y-89024064D01*
X117444417Y-89230000D01*
X101775583Y-89230000D01*
X101755300Y-89024066D01*
X101695232Y-88826046D01*
X101597685Y-88643550D01*
X101466410Y-88483590D01*
X101306450Y-88352315D01*
X101123956Y-88254769D01*
X101123955Y-88254768D01*
X101123954Y-88254768D01*
X101012158Y-88220855D01*
X100925935Y-88194700D01*
X100720000Y-88174417D01*
X100514064Y-88194700D01*
X100316043Y-88254769D01*
X100133549Y-88352315D01*
X99973590Y-88483589D01*
X99973589Y-88483590D01*
X99842315Y-88643549D01*
X99744769Y-88826043D01*
X99684700Y-89024064D01*
X99664417Y-89230000D01*
X92814159Y-89230000D01*
X92746632Y-89132170D01*
X92746631Y-89132169D01*
X92746630Y-89132167D01*
X92716403Y-89105389D01*
X92691609Y-89054467D01*
X92710084Y-89000928D01*
X92716403Y-88994609D01*
X92746632Y-88967829D01*
X92832921Y-88842818D01*
X92886785Y-88700790D01*
X92905094Y-88549999D01*
X92886785Y-88399208D01*
X92832921Y-88257180D01*
X92746632Y-88132169D01*
X92716402Y-88105388D01*
X92691609Y-88054467D01*
X92710084Y-88000928D01*
X92716392Y-87994619D01*
X92746632Y-87967830D01*
X92832921Y-87842819D01*
X92886785Y-87700791D01*
X92902947Y-87567684D01*
X92905094Y-87550003D01*
X92905094Y-87549996D01*
X92886785Y-87399209D01*
X92832921Y-87257181D01*
X92746632Y-87132170D01*
X92716403Y-87105390D01*
X92691609Y-87054468D01*
X92710084Y-87000929D01*
X92716403Y-86994610D01*
X92727597Y-86984693D01*
X92746632Y-86967830D01*
X92832921Y-86842819D01*
X92886785Y-86700791D01*
X92888095Y-86690000D01*
X99664417Y-86690000D01*
X99684700Y-86895935D01*
X99744769Y-87093956D01*
X99842315Y-87276450D01*
X99967711Y-87429247D01*
X99973590Y-87436410D01*
X100133550Y-87567685D01*
X100316046Y-87665232D01*
X100514066Y-87725300D01*
X100720000Y-87745583D01*
X100925934Y-87725300D01*
X101123954Y-87665232D01*
X101306450Y-87567685D01*
X101466410Y-87436410D01*
X101597685Y-87276450D01*
X101695232Y-87093954D01*
X101755300Y-86895934D01*
X101775583Y-86690000D01*
X117444417Y-86690000D01*
X117464700Y-86895935D01*
X117524769Y-87093956D01*
X117622315Y-87276450D01*
X117747711Y-87429247D01*
X117753590Y-87436410D01*
X117913550Y-87567685D01*
X118096046Y-87665232D01*
X118294066Y-87725300D01*
X118500000Y-87745583D01*
X118705934Y-87725300D01*
X118903954Y-87665232D01*
X119086450Y-87567685D01*
X119246410Y-87436410D01*
X119377685Y-87276450D01*
X119475232Y-87093954D01*
X119535300Y-86895934D01*
X119555583Y-86690000D01*
X119535300Y-86484066D01*
X119494631Y-86349996D01*
X124844357Y-86349996D01*
X124844357Y-86350003D01*
X124864883Y-86571524D01*
X124864885Y-86571537D01*
X124925769Y-86785522D01*
X124925771Y-86785527D01*
X125024942Y-86984690D01*
X125024944Y-86984693D01*
X125136314Y-87132170D01*
X125159019Y-87162236D01*
X125323438Y-87312124D01*
X125512599Y-87429247D01*
X125720060Y-87509618D01*
X125938757Y-87550500D01*
X126161243Y-87550500D01*
X126379940Y-87509618D01*
X126587401Y-87429247D01*
X126776562Y-87312124D01*
X126940981Y-87162236D01*
X127075058Y-86984689D01*
X127174229Y-86785528D01*
X127235115Y-86571536D01*
X127255643Y-86350000D01*
X127255643Y-86349996D01*
X131344357Y-86349996D01*
X131344357Y-86350003D01*
X131364883Y-86571524D01*
X131364885Y-86571537D01*
X131425769Y-86785522D01*
X131425771Y-86785527D01*
X131524942Y-86984690D01*
X131524944Y-86984693D01*
X131636314Y-87132170D01*
X131659019Y-87162236D01*
X131823438Y-87312124D01*
X132012599Y-87429247D01*
X132220060Y-87509618D01*
X132438757Y-87550500D01*
X132661243Y-87550500D01*
X132879940Y-87509618D01*
X133087401Y-87429247D01*
X133276562Y-87312124D01*
X133440981Y-87162236D01*
X133575058Y-86984689D01*
X133674229Y-86785528D01*
X133735115Y-86571536D01*
X133755643Y-86350000D01*
X133735115Y-86128464D01*
X133674229Y-85914472D01*
X133575058Y-85715311D01*
X133575057Y-85715310D01*
X133575057Y-85715309D01*
X133575055Y-85715306D01*
X133440983Y-85537767D01*
X133440981Y-85537764D01*
X133276562Y-85387876D01*
X133087401Y-85270753D01*
X133026168Y-85247031D01*
X132879942Y-85190382D01*
X132661246Y-85149500D01*
X132661243Y-85149500D01*
X132438757Y-85149500D01*
X132438753Y-85149500D01*
X132220057Y-85190382D01*
X132012604Y-85270751D01*
X132012599Y-85270753D01*
X132012594Y-85270755D01*
X132012594Y-85270756D01*
X131823440Y-85387874D01*
X131659016Y-85537767D01*
X131524944Y-85715306D01*
X131524942Y-85715309D01*
X131425771Y-85914472D01*
X131425769Y-85914477D01*
X131364885Y-86128462D01*
X131364883Y-86128475D01*
X131344357Y-86349996D01*
X127255643Y-86349996D01*
X127235115Y-86128464D01*
X127174229Y-85914472D01*
X127075058Y-85715311D01*
X127075057Y-85715310D01*
X127075057Y-85715309D01*
X127075055Y-85715306D01*
X126940983Y-85537767D01*
X126940981Y-85537764D01*
X126776562Y-85387876D01*
X126587401Y-85270753D01*
X126526168Y-85247031D01*
X126379942Y-85190382D01*
X126161246Y-85149500D01*
X126161243Y-85149500D01*
X125938757Y-85149500D01*
X125938753Y-85149500D01*
X125720057Y-85190382D01*
X125512604Y-85270751D01*
X125512599Y-85270753D01*
X125512594Y-85270755D01*
X125512594Y-85270756D01*
X125323440Y-85387874D01*
X125159016Y-85537767D01*
X125024944Y-85715306D01*
X125024942Y-85715309D01*
X124925771Y-85914472D01*
X124925769Y-85914477D01*
X124864885Y-86128462D01*
X124864883Y-86128475D01*
X124844357Y-86349996D01*
X119494631Y-86349996D01*
X119475232Y-86286046D01*
X119377685Y-86103550D01*
X119246410Y-85943590D01*
X119210935Y-85914477D01*
X119086450Y-85812315D01*
X118903956Y-85714769D01*
X118903955Y-85714768D01*
X118903954Y-85714768D01*
X118792158Y-85680855D01*
X118705935Y-85654700D01*
X118500000Y-85634417D01*
X118294064Y-85654700D01*
X118096043Y-85714769D01*
X117913549Y-85812315D01*
X117753590Y-85943589D01*
X117753589Y-85943590D01*
X117622315Y-86103549D01*
X117524769Y-86286043D01*
X117464700Y-86484064D01*
X117444417Y-86690000D01*
X101775583Y-86690000D01*
X101755300Y-86484066D01*
X101695232Y-86286046D01*
X101597685Y-86103550D01*
X101466410Y-85943590D01*
X101430935Y-85914477D01*
X101306450Y-85812315D01*
X101123956Y-85714769D01*
X101123955Y-85714768D01*
X101123954Y-85714768D01*
X101012158Y-85680855D01*
X100925935Y-85654700D01*
X100720000Y-85634417D01*
X100514064Y-85654700D01*
X100316043Y-85714769D01*
X100133549Y-85812315D01*
X99973590Y-85943589D01*
X99973589Y-85943590D01*
X99842315Y-86103549D01*
X99744769Y-86286043D01*
X99684700Y-86484064D01*
X99664417Y-86690000D01*
X92888095Y-86690000D01*
X92905094Y-86550000D01*
X92897088Y-86484066D01*
X92886785Y-86399209D01*
X92832921Y-86257181D01*
X92746632Y-86132170D01*
X92742449Y-86128464D01*
X92632934Y-86031443D01*
X92632932Y-86031442D01*
X92632930Y-86031440D01*
X92498437Y-85960853D01*
X92498434Y-85960852D01*
X92350949Y-85924500D01*
X92199051Y-85924500D01*
X92051562Y-85960853D01*
X91917069Y-86031440D01*
X91803367Y-86132170D01*
X91717078Y-86257181D01*
X91663214Y-86399209D01*
X91644906Y-86549996D01*
X78017585Y-86549996D01*
X78017193Y-84150000D01*
X99664417Y-84150000D01*
X99684700Y-84355934D01*
X99744768Y-84553954D01*
X99842315Y-84736450D01*
X99973590Y-84896410D01*
X100133550Y-85027685D01*
X100316046Y-85125232D01*
X100514066Y-85185300D01*
X100720000Y-85205583D01*
X100925934Y-85185300D01*
X101123954Y-85125232D01*
X101306450Y-85027685D01*
X101466410Y-84896410D01*
X101597685Y-84736450D01*
X101695232Y-84553954D01*
X101755300Y-84355934D01*
X101775583Y-84150000D01*
X117444417Y-84150000D01*
X117464700Y-84355934D01*
X117524768Y-84553954D01*
X117622315Y-84736450D01*
X117753590Y-84896410D01*
X117913550Y-85027685D01*
X118096046Y-85125232D01*
X118294066Y-85185300D01*
X118500000Y-85205583D01*
X118705934Y-85185300D01*
X118903954Y-85125232D01*
X119086450Y-85027685D01*
X119246410Y-84896410D01*
X119377685Y-84736450D01*
X119475232Y-84553954D01*
X119535300Y-84355934D01*
X119555583Y-84150000D01*
X119535300Y-83944066D01*
X119475232Y-83746046D01*
X119377685Y-83563550D01*
X119246410Y-83403590D01*
X119086450Y-83272315D01*
X118903954Y-83174768D01*
X118792158Y-83140855D01*
X118705935Y-83114700D01*
X118500000Y-83094417D01*
X118294064Y-83114700D01*
X118096043Y-83174769D01*
X117913549Y-83272315D01*
X117753590Y-83403589D01*
X117753589Y-83403590D01*
X117622315Y-83563549D01*
X117524769Y-83746043D01*
X117464700Y-83944064D01*
X117464700Y-83944066D01*
X117444417Y-84150000D01*
X101775583Y-84150000D01*
X101755300Y-83944066D01*
X101695232Y-83746046D01*
X101597685Y-83563550D01*
X101466410Y-83403590D01*
X101306450Y-83272315D01*
X101123954Y-83174768D01*
X101012158Y-83140855D01*
X100925935Y-83114700D01*
X100720000Y-83094417D01*
X100514064Y-83114700D01*
X100316043Y-83174769D01*
X100133549Y-83272315D01*
X99973590Y-83403589D01*
X99973589Y-83403590D01*
X99842315Y-83563549D01*
X99744769Y-83746043D01*
X99684700Y-83944064D01*
X99684700Y-83944066D01*
X99664417Y-84150000D01*
X78017193Y-84150000D01*
X78016637Y-80740253D01*
X117449500Y-80740253D01*
X117449500Y-82479746D01*
X117461133Y-82538232D01*
X117490608Y-82582343D01*
X117505448Y-82604552D01*
X117549560Y-82634027D01*
X117571767Y-82648866D01*
X117571768Y-82648866D01*
X117571769Y-82648867D01*
X117630252Y-82660500D01*
X117630254Y-82660500D01*
X119369746Y-82660500D01*
X119369748Y-82660500D01*
X119428231Y-82648867D01*
X119494552Y-82604552D01*
X119538867Y-82538231D01*
X119550500Y-82479748D01*
X119550500Y-80740252D01*
X119538867Y-80681769D01*
X119494552Y-80615448D01*
X119472343Y-80600608D01*
X119428232Y-80571133D01*
X119428233Y-80571133D01*
X119398989Y-80565316D01*
X119369748Y-80559500D01*
X117630252Y-80559500D01*
X117601010Y-80565316D01*
X117571767Y-80571133D01*
X117505449Y-80615447D01*
X117505447Y-80615449D01*
X117461133Y-80681767D01*
X117449500Y-80740253D01*
X78016637Y-80740253D01*
X78016364Y-79070000D01*
X99664417Y-79070000D01*
X99684700Y-79275935D01*
X99744769Y-79473956D01*
X99787697Y-79554268D01*
X99842315Y-79656450D01*
X99973590Y-79816410D01*
X100133550Y-79947685D01*
X100316046Y-80045232D01*
X100514066Y-80105300D01*
X100720000Y-80125583D01*
X100925934Y-80105300D01*
X101123954Y-80045232D01*
X101306450Y-79947685D01*
X101466410Y-79816410D01*
X101597685Y-79656450D01*
X101695232Y-79473954D01*
X101755300Y-79275934D01*
X101775583Y-79070000D01*
X117444417Y-79070000D01*
X117464700Y-79275935D01*
X117524769Y-79473956D01*
X117567697Y-79554268D01*
X117622315Y-79656450D01*
X117753590Y-79816410D01*
X117913550Y-79947685D01*
X118096046Y-80045232D01*
X118294066Y-80105300D01*
X118500000Y-80125583D01*
X118705934Y-80105300D01*
X118903954Y-80045232D01*
X119086450Y-79947685D01*
X119246410Y-79816410D01*
X119377685Y-79656450D01*
X119475232Y-79473954D01*
X119535300Y-79275934D01*
X119555583Y-79070000D01*
X119535300Y-78864066D01*
X119475232Y-78666046D01*
X119377685Y-78483550D01*
X119246410Y-78323590D01*
X119086450Y-78192315D01*
X118903954Y-78094768D01*
X118792158Y-78060855D01*
X118705935Y-78034700D01*
X118500000Y-78014417D01*
X118294064Y-78034700D01*
X118096043Y-78094769D01*
X117913549Y-78192315D01*
X117753590Y-78323589D01*
X117753589Y-78323590D01*
X117622315Y-78483549D01*
X117524769Y-78666043D01*
X117464700Y-78864064D01*
X117444417Y-79070000D01*
X101775583Y-79070000D01*
X101755300Y-78864066D01*
X101695232Y-78666046D01*
X101597685Y-78483550D01*
X101466410Y-78323590D01*
X101306450Y-78192315D01*
X101123954Y-78094768D01*
X101012158Y-78060855D01*
X100925935Y-78034700D01*
X100720000Y-78014417D01*
X100514064Y-78034700D01*
X100316043Y-78094769D01*
X100133549Y-78192315D01*
X99973590Y-78323589D01*
X99973589Y-78323590D01*
X99842315Y-78483549D01*
X99744769Y-78666043D01*
X99684700Y-78864064D01*
X99664417Y-79070000D01*
X78016364Y-79070000D01*
X78015950Y-76530000D01*
X99664417Y-76530000D01*
X99684700Y-76735935D01*
X99688105Y-76747159D01*
X99744768Y-76933954D01*
X99842315Y-77116450D01*
X99973590Y-77276410D01*
X100133550Y-77407685D01*
X100316046Y-77505232D01*
X100514066Y-77565300D01*
X100720000Y-77585583D01*
X100925934Y-77565300D01*
X101123954Y-77505232D01*
X101306450Y-77407685D01*
X101466410Y-77276410D01*
X101597685Y-77116450D01*
X101695232Y-76933954D01*
X101755300Y-76735934D01*
X101775583Y-76530000D01*
X117444417Y-76530000D01*
X117464700Y-76735935D01*
X117468105Y-76747159D01*
X117524768Y-76933954D01*
X117622315Y-77116450D01*
X117753590Y-77276410D01*
X117913550Y-77407685D01*
X118096046Y-77505232D01*
X118294066Y-77565300D01*
X118500000Y-77585583D01*
X118705934Y-77565300D01*
X118903954Y-77505232D01*
X119086450Y-77407685D01*
X119246410Y-77276410D01*
X119350151Y-77150000D01*
X125244318Y-77150000D01*
X125264955Y-77306760D01*
X125264955Y-77306761D01*
X125325464Y-77452841D01*
X125421715Y-77578279D01*
X125421720Y-77578284D01*
X125495692Y-77635044D01*
X125547159Y-77674536D01*
X125693238Y-77735044D01*
X125850000Y-77755682D01*
X126006762Y-77735044D01*
X126152841Y-77674536D01*
X126278282Y-77578282D01*
X126374536Y-77452841D01*
X126377294Y-77446181D01*
X126417341Y-77406134D01*
X126445661Y-77400500D01*
X130125541Y-77400500D01*
X130177867Y-77422174D01*
X130184249Y-77429452D01*
X130221715Y-77478279D01*
X130221720Y-77478284D01*
X130256837Y-77505230D01*
X130347159Y-77574536D01*
X130493238Y-77635044D01*
X130650000Y-77655682D01*
X130806762Y-77635044D01*
X130952841Y-77574536D01*
X131078282Y-77478282D01*
X131174536Y-77352841D01*
X131235044Y-77206762D01*
X131255682Y-77050000D01*
X131235044Y-76893238D01*
X131174536Y-76747159D01*
X131126232Y-76684208D01*
X131078284Y-76621720D01*
X131078279Y-76621715D01*
X130979259Y-76545735D01*
X135799500Y-76545735D01*
X135799500Y-76545736D01*
X135799500Y-76545741D01*
X135799500Y-79554255D01*
X135799501Y-79554268D01*
X135802353Y-79584695D01*
X135802355Y-79584704D01*
X135847205Y-79712880D01*
X135847207Y-79712883D01*
X135927846Y-79822146D01*
X135927853Y-79822153D01*
X136037116Y-79902792D01*
X136037119Y-79902794D01*
X136165292Y-79947643D01*
X136165299Y-79947645D01*
X136165302Y-79947646D01*
X136195735Y-79950500D01*
X137304264Y-79950499D01*
X137334698Y-79947646D01*
X137334707Y-79947643D01*
X137462880Y-79902794D01*
X137462883Y-79902792D01*
X137572146Y-79822153D01*
X137572146Y-79822152D01*
X137572150Y-79822150D01*
X137652793Y-79712882D01*
X137697646Y-79584698D01*
X137700500Y-79554265D01*
X137700499Y-76545736D01*
X137700499Y-76545735D01*
X142499500Y-76545735D01*
X142499500Y-76545736D01*
X142499500Y-76545741D01*
X142499500Y-79554255D01*
X142499501Y-79554268D01*
X142502353Y-79584695D01*
X142502355Y-79584704D01*
X142547205Y-79712880D01*
X142547207Y-79712883D01*
X142627846Y-79822146D01*
X142627853Y-79822153D01*
X142737116Y-79902792D01*
X142737119Y-79902794D01*
X142865292Y-79947643D01*
X142865299Y-79947645D01*
X142865302Y-79947646D01*
X142895735Y-79950500D01*
X144004264Y-79950499D01*
X144034698Y-79947646D01*
X144034707Y-79947643D01*
X144162880Y-79902794D01*
X144162883Y-79902792D01*
X144272146Y-79822153D01*
X144272146Y-79822152D01*
X144272150Y-79822150D01*
X144352793Y-79712882D01*
X144397646Y-79584698D01*
X144400500Y-79554265D01*
X144400499Y-76545736D01*
X144397646Y-76515302D01*
X144397643Y-76515292D01*
X144352794Y-76387119D01*
X144352792Y-76387116D01*
X144272153Y-76277853D01*
X144272146Y-76277846D01*
X144162883Y-76197207D01*
X144162880Y-76197205D01*
X144034707Y-76152356D01*
X144034700Y-76152354D01*
X144027935Y-76151719D01*
X144004265Y-76149500D01*
X144004258Y-76149500D01*
X142895744Y-76149500D01*
X142895731Y-76149501D01*
X142865304Y-76152353D01*
X142865295Y-76152355D01*
X142737119Y-76197205D01*
X142737116Y-76197207D01*
X142627853Y-76277846D01*
X142627846Y-76277853D01*
X142547207Y-76387116D01*
X142547205Y-76387119D01*
X142502356Y-76515292D01*
X142502354Y-76515299D01*
X142502354Y-76515302D01*
X142499500Y-76545735D01*
X137700499Y-76545735D01*
X137697646Y-76515302D01*
X137697643Y-76515292D01*
X137652794Y-76387119D01*
X137652792Y-76387116D01*
X137572153Y-76277853D01*
X137572146Y-76277846D01*
X137462883Y-76197207D01*
X137462880Y-76197205D01*
X137334707Y-76152356D01*
X137334700Y-76152354D01*
X137327935Y-76151719D01*
X137304265Y-76149500D01*
X137304258Y-76149500D01*
X136195744Y-76149500D01*
X136195731Y-76149501D01*
X136165304Y-76152353D01*
X136165295Y-76152355D01*
X136037119Y-76197205D01*
X136037116Y-76197207D01*
X135927853Y-76277846D01*
X135927846Y-76277853D01*
X135847207Y-76387116D01*
X135847205Y-76387119D01*
X135802356Y-76515292D01*
X135802354Y-76515299D01*
X135802354Y-76515302D01*
X135799500Y-76545735D01*
X130979259Y-76545735D01*
X130952841Y-76525464D01*
X130806761Y-76464955D01*
X130650000Y-76444318D01*
X130493239Y-76464955D01*
X130493238Y-76464955D01*
X130347158Y-76525464D01*
X130221720Y-76621715D01*
X130221715Y-76621720D01*
X130184249Y-76670548D01*
X130135200Y-76698867D01*
X130125541Y-76699500D01*
X126274446Y-76699500D01*
X126229398Y-76684208D01*
X126152841Y-76625464D01*
X126006761Y-76564955D01*
X125850000Y-76544318D01*
X125693239Y-76564955D01*
X125693238Y-76564955D01*
X125547158Y-76625464D01*
X125421720Y-76721715D01*
X125421715Y-76721720D01*
X125325464Y-76847158D01*
X125264955Y-76993238D01*
X125264955Y-76993239D01*
X125244318Y-77150000D01*
X119350151Y-77150000D01*
X119377685Y-77116450D01*
X119475232Y-76933954D01*
X119535300Y-76735934D01*
X119555583Y-76530000D01*
X119535300Y-76324066D01*
X119475232Y-76126046D01*
X119377685Y-75943550D01*
X119246410Y-75783590D01*
X119086450Y-75652315D01*
X118903954Y-75554768D01*
X118792158Y-75520855D01*
X118705935Y-75494700D01*
X118500000Y-75474417D01*
X118294064Y-75494700D01*
X118096043Y-75554769D01*
X117913549Y-75652315D01*
X117753590Y-75783589D01*
X117753589Y-75783590D01*
X117622315Y-75943549D01*
X117524769Y-76126043D01*
X117464700Y-76324064D01*
X117444417Y-76530000D01*
X101775583Y-76530000D01*
X101755300Y-76324066D01*
X101695232Y-76126046D01*
X101597685Y-75943550D01*
X101466410Y-75783590D01*
X101306450Y-75652315D01*
X101123954Y-75554768D01*
X101012158Y-75520855D01*
X100925935Y-75494700D01*
X100720000Y-75474417D01*
X100514064Y-75494700D01*
X100316043Y-75554769D01*
X100133549Y-75652315D01*
X99973590Y-75783589D01*
X99973589Y-75783590D01*
X99842315Y-75943549D01*
X99744769Y-76126043D01*
X99684700Y-76324064D01*
X99664417Y-76530000D01*
X78015950Y-76530000D01*
X78015535Y-73990000D01*
X99664417Y-73990000D01*
X99684700Y-74195935D01*
X99700386Y-74247644D01*
X99744768Y-74393954D01*
X99842315Y-74576450D01*
X99973590Y-74736410D01*
X100133550Y-74867685D01*
X100316046Y-74965232D01*
X100514066Y-75025300D01*
X100720000Y-75045583D01*
X100925934Y-75025300D01*
X101123954Y-74965232D01*
X101306450Y-74867685D01*
X101466410Y-74736410D01*
X101597685Y-74576450D01*
X101695232Y-74393954D01*
X101755300Y-74195934D01*
X101775583Y-73990000D01*
X117444417Y-73990000D01*
X117464700Y-74195935D01*
X117480386Y-74247644D01*
X117524768Y-74393954D01*
X117622315Y-74576450D01*
X117753590Y-74736410D01*
X117913550Y-74867685D01*
X118096046Y-74965232D01*
X118294066Y-75025300D01*
X118500000Y-75045583D01*
X118705934Y-75025300D01*
X118903954Y-74965232D01*
X119086450Y-74867685D01*
X119246410Y-74736410D01*
X119377685Y-74576450D01*
X119475232Y-74393954D01*
X119535300Y-74195934D01*
X119555583Y-73990000D01*
X119535300Y-73784066D01*
X119475232Y-73586046D01*
X119377685Y-73403550D01*
X119246410Y-73243590D01*
X119086450Y-73112315D01*
X118903954Y-73014768D01*
X118792158Y-72980855D01*
X118705935Y-72954700D01*
X118500000Y-72934417D01*
X118294064Y-72954700D01*
X118096043Y-73014769D01*
X117913549Y-73112315D01*
X117753590Y-73243589D01*
X117753589Y-73243590D01*
X117622315Y-73403549D01*
X117524769Y-73586043D01*
X117464700Y-73784064D01*
X117444417Y-73990000D01*
X101775583Y-73990000D01*
X101755300Y-73784066D01*
X101695232Y-73586046D01*
X101597685Y-73403550D01*
X101466410Y-73243590D01*
X101306450Y-73112315D01*
X101123954Y-73014768D01*
X101012158Y-72980855D01*
X100925935Y-72954700D01*
X100720000Y-72934417D01*
X100514064Y-72954700D01*
X100316043Y-73014769D01*
X100133549Y-73112315D01*
X99973590Y-73243589D01*
X99973589Y-73243590D01*
X99842315Y-73403549D01*
X99744769Y-73586043D01*
X99684700Y-73784064D01*
X99664417Y-73990000D01*
X78015535Y-73990000D01*
X78015121Y-71450000D01*
X99664417Y-71450000D01*
X99684700Y-71655934D01*
X99744768Y-71853954D01*
X99842315Y-72036450D01*
X99973590Y-72196410D01*
X100133550Y-72327685D01*
X100316046Y-72425232D01*
X100514066Y-72485300D01*
X100720000Y-72505583D01*
X100925934Y-72485300D01*
X101123954Y-72425232D01*
X101306450Y-72327685D01*
X101466410Y-72196410D01*
X101597685Y-72036450D01*
X101695232Y-71853954D01*
X101755300Y-71655934D01*
X101775583Y-71450000D01*
X117444417Y-71450000D01*
X117464700Y-71655934D01*
X117524768Y-71853954D01*
X117622315Y-72036450D01*
X117753590Y-72196410D01*
X117913550Y-72327685D01*
X118096046Y-72425232D01*
X118294066Y-72485300D01*
X118500000Y-72505583D01*
X118705934Y-72485300D01*
X118903954Y-72425232D01*
X119086450Y-72327685D01*
X119246410Y-72196410D01*
X119377685Y-72036450D01*
X119475232Y-71853954D01*
X119535300Y-71655934D01*
X119555583Y-71450000D01*
X119535300Y-71244066D01*
X119475232Y-71046046D01*
X119377685Y-70863550D01*
X119280996Y-70745734D01*
X140399500Y-70745734D01*
X140399500Y-73854266D01*
X140402354Y-73884699D01*
X140402354Y-73884701D01*
X140402355Y-73884704D01*
X140447206Y-74012881D01*
X140447207Y-74012883D01*
X140527846Y-74122146D01*
X140527853Y-74122153D01*
X140637116Y-74202792D01*
X140637118Y-74202793D01*
X140765295Y-74247644D01*
X140765301Y-74247646D01*
X140795734Y-74250500D01*
X140795741Y-74250500D01*
X141404258Y-74250500D01*
X141404266Y-74250500D01*
X141434699Y-74247646D01*
X141562882Y-74202793D01*
X141672150Y-74122150D01*
X141752793Y-74012882D01*
X141797646Y-73884699D01*
X141800500Y-73854266D01*
X141800500Y-70745734D01*
X141797646Y-70715301D01*
X141752793Y-70587118D01*
X141741868Y-70572315D01*
X141672153Y-70477853D01*
X141672149Y-70477849D01*
X141580557Y-70410251D01*
X141551327Y-70361740D01*
X141550500Y-70350711D01*
X141550500Y-69324446D01*
X141565792Y-69279397D01*
X141624536Y-69202841D01*
X141685044Y-69056762D01*
X141705682Y-68900000D01*
X141685044Y-68743238D01*
X141624536Y-68597159D01*
X141528282Y-68471718D01*
X141528279Y-68471715D01*
X141402841Y-68375464D01*
X141256761Y-68314955D01*
X141100000Y-68294318D01*
X140943239Y-68314955D01*
X140943238Y-68314955D01*
X140797158Y-68375464D01*
X140671720Y-68471715D01*
X140671715Y-68471720D01*
X140575464Y-68597158D01*
X140514955Y-68743238D01*
X140514955Y-68743239D01*
X140494318Y-68900000D01*
X140514955Y-69056760D01*
X140514955Y-69056761D01*
X140575464Y-69202841D01*
X140634208Y-69279397D01*
X140649500Y-69324446D01*
X140649500Y-70350711D01*
X140627826Y-70403037D01*
X140619443Y-70410251D01*
X140527850Y-70477849D01*
X140527846Y-70477853D01*
X140447207Y-70587116D01*
X140447206Y-70587118D01*
X140402355Y-70715295D01*
X140402354Y-70715299D01*
X140402354Y-70715301D01*
X140399500Y-70745734D01*
X119280996Y-70745734D01*
X119246410Y-70703590D01*
X119086450Y-70572315D01*
X118903954Y-70474768D01*
X118792158Y-70440855D01*
X118705935Y-70414700D01*
X118500000Y-70394417D01*
X118294064Y-70414700D01*
X118096043Y-70474769D01*
X117913549Y-70572315D01*
X117753590Y-70703589D01*
X117753589Y-70703590D01*
X117622315Y-70863549D01*
X117524769Y-71046043D01*
X117464700Y-71244064D01*
X117464700Y-71244066D01*
X117444417Y-71450000D01*
X101775583Y-71450000D01*
X101755300Y-71244066D01*
X101695232Y-71046046D01*
X101597685Y-70863550D01*
X101466410Y-70703590D01*
X101306450Y-70572315D01*
X101123954Y-70474768D01*
X101012158Y-70440855D01*
X100925935Y-70414700D01*
X100720000Y-70394417D01*
X100514064Y-70414700D01*
X100316043Y-70474769D01*
X100133549Y-70572315D01*
X99973590Y-70703589D01*
X99973589Y-70703590D01*
X99842315Y-70863549D01*
X99744769Y-71046043D01*
X99684700Y-71244064D01*
X99684700Y-71244066D01*
X99664417Y-71450000D01*
X78015121Y-71450000D01*
X78014615Y-68349996D01*
X84494357Y-68349996D01*
X84494357Y-68350003D01*
X84514883Y-68571524D01*
X84514885Y-68571537D01*
X84575769Y-68785522D01*
X84575771Y-68785527D01*
X84674942Y-68984690D01*
X84674944Y-68984693D01*
X84806356Y-69158710D01*
X84809019Y-69162236D01*
X84973438Y-69312124D01*
X85162599Y-69429247D01*
X85370060Y-69509618D01*
X85588757Y-69550500D01*
X85811243Y-69550500D01*
X86029940Y-69509618D01*
X86237401Y-69429247D01*
X86426562Y-69312124D01*
X86590981Y-69162236D01*
X86725058Y-68984689D01*
X86824229Y-68785528D01*
X86885115Y-68571536D01*
X86894365Y-68471715D01*
X86905643Y-68350003D01*
X86905643Y-68349996D01*
X90994357Y-68349996D01*
X90994357Y-68350003D01*
X91014883Y-68571524D01*
X91014885Y-68571537D01*
X91075769Y-68785522D01*
X91075771Y-68785527D01*
X91174942Y-68984690D01*
X91174944Y-68984693D01*
X91306356Y-69158710D01*
X91309019Y-69162236D01*
X91473438Y-69312124D01*
X91662599Y-69429247D01*
X91870060Y-69509618D01*
X92088757Y-69550500D01*
X92311243Y-69550500D01*
X92529940Y-69509618D01*
X92737401Y-69429247D01*
X92926562Y-69312124D01*
X93090981Y-69162236D01*
X93225058Y-68984689D01*
X93324229Y-68785528D01*
X93385115Y-68571536D01*
X93394365Y-68471715D01*
X93405643Y-68350003D01*
X93405643Y-68349996D01*
X93385116Y-68128475D01*
X93385115Y-68128464D01*
X93324229Y-67914472D01*
X93225058Y-67715311D01*
X93225057Y-67715310D01*
X93225057Y-67715309D01*
X93225055Y-67715306D01*
X93090983Y-67537767D01*
X93090981Y-67537764D01*
X92926562Y-67387876D01*
X92737401Y-67270753D01*
X92676168Y-67247031D01*
X92529942Y-67190382D01*
X92311246Y-67149500D01*
X92311243Y-67149500D01*
X92088757Y-67149500D01*
X92088753Y-67149500D01*
X91870057Y-67190382D01*
X91662604Y-67270751D01*
X91662599Y-67270753D01*
X91662594Y-67270755D01*
X91662594Y-67270756D01*
X91473440Y-67387874D01*
X91309016Y-67537767D01*
X91174944Y-67715306D01*
X91174942Y-67715309D01*
X91075771Y-67914472D01*
X91075769Y-67914477D01*
X91014885Y-68128462D01*
X91014883Y-68128475D01*
X90994357Y-68349996D01*
X86905643Y-68349996D01*
X86885116Y-68128475D01*
X86885115Y-68128464D01*
X86824229Y-67914472D01*
X86725058Y-67715311D01*
X86725057Y-67715310D01*
X86725057Y-67715309D01*
X86725055Y-67715306D01*
X86590983Y-67537767D01*
X86590981Y-67537764D01*
X86426562Y-67387876D01*
X86237401Y-67270753D01*
X86176168Y-67247031D01*
X86029942Y-67190382D01*
X85811246Y-67149500D01*
X85811243Y-67149500D01*
X85588757Y-67149500D01*
X85588753Y-67149500D01*
X85370057Y-67190382D01*
X85162604Y-67270751D01*
X85162599Y-67270753D01*
X85162594Y-67270755D01*
X85162594Y-67270756D01*
X84973440Y-67387874D01*
X84809016Y-67537767D01*
X84674944Y-67715306D01*
X84674942Y-67715309D01*
X84575771Y-67914472D01*
X84575769Y-67914477D01*
X84514885Y-68128462D01*
X84514883Y-68128475D01*
X84494357Y-68349996D01*
X78014615Y-68349996D01*
X78014292Y-66370000D01*
X99664417Y-66370000D01*
X99684700Y-66575934D01*
X99721779Y-66698170D01*
X99744769Y-66773956D01*
X99842315Y-66956450D01*
X99950718Y-67088541D01*
X99973590Y-67116410D01*
X100133550Y-67247685D01*
X100316046Y-67345232D01*
X100514066Y-67405300D01*
X100720000Y-67425583D01*
X100925934Y-67405300D01*
X101123954Y-67345232D01*
X101306450Y-67247685D01*
X101466410Y-67116410D01*
X101597685Y-66956450D01*
X101632424Y-66891459D01*
X106184500Y-66891459D01*
X106184500Y-67088541D01*
X106190044Y-67116410D01*
X106222947Y-67281829D01*
X106222950Y-67281839D01*
X106298367Y-67463913D01*
X106407860Y-67627781D01*
X106547218Y-67767139D01*
X106711086Y-67876632D01*
X106802440Y-67914472D01*
X106893165Y-67952051D01*
X107086459Y-67990500D01*
X107086461Y-67990500D01*
X107283539Y-67990500D01*
X107283541Y-67990500D01*
X107476835Y-67952051D01*
X107658914Y-67876632D01*
X107822782Y-67767139D01*
X107962139Y-67627782D01*
X108071632Y-67463914D01*
X108147051Y-67281835D01*
X108185500Y-67088541D01*
X108185500Y-66891459D01*
X111034500Y-66891459D01*
X111034500Y-67088541D01*
X111040044Y-67116410D01*
X111072947Y-67281829D01*
X111072950Y-67281839D01*
X111148367Y-67463913D01*
X111257860Y-67627781D01*
X111397218Y-67767139D01*
X111561086Y-67876632D01*
X111652440Y-67914472D01*
X111743165Y-67952051D01*
X111936459Y-67990500D01*
X111936461Y-67990500D01*
X112133539Y-67990500D01*
X112133541Y-67990500D01*
X112326835Y-67952051D01*
X112508914Y-67876632D01*
X112672782Y-67767139D01*
X112812139Y-67627782D01*
X112921632Y-67463914D01*
X112997051Y-67281835D01*
X113035500Y-67088541D01*
X113035500Y-66891459D01*
X112997051Y-66698165D01*
X112921632Y-66516086D01*
X112824021Y-66370000D01*
X117444417Y-66370000D01*
X117464700Y-66575934D01*
X117501779Y-66698170D01*
X117524769Y-66773956D01*
X117622315Y-66956450D01*
X117730718Y-67088541D01*
X117753590Y-67116410D01*
X117913550Y-67247685D01*
X118096046Y-67345232D01*
X118294066Y-67405300D01*
X118500000Y-67425583D01*
X118705934Y-67405300D01*
X118903954Y-67345232D01*
X119086450Y-67247685D01*
X119246410Y-67116410D01*
X119377685Y-66956450D01*
X119475232Y-66773954D01*
X119535300Y-66575934D01*
X119555583Y-66370000D01*
X119535300Y-66164066D01*
X119475232Y-65966046D01*
X119377685Y-65783550D01*
X119246410Y-65623590D01*
X119086450Y-65492315D01*
X118903954Y-65394768D01*
X118792158Y-65360855D01*
X118705935Y-65334700D01*
X118500000Y-65314417D01*
X118294064Y-65334700D01*
X118096043Y-65394769D01*
X117913549Y-65492315D01*
X117753590Y-65623589D01*
X117753589Y-65623590D01*
X117622315Y-65783549D01*
X117524769Y-65966043D01*
X117464700Y-66164064D01*
X117464700Y-66164066D01*
X117444417Y-66370000D01*
X112824021Y-66370000D01*
X112812139Y-66352218D01*
X112672782Y-66212861D01*
X112653758Y-66200149D01*
X112508913Y-66103367D01*
X112326839Y-66027950D01*
X112326829Y-66027947D01*
X112197388Y-66002200D01*
X112133541Y-65989500D01*
X111936459Y-65989500D01*
X111881662Y-66000399D01*
X111743170Y-66027947D01*
X111743160Y-66027950D01*
X111561086Y-66103367D01*
X111397218Y-66212860D01*
X111397217Y-66212862D01*
X111257862Y-66352217D01*
X111257860Y-66352218D01*
X111148367Y-66516086D01*
X111072950Y-66698160D01*
X111072947Y-66698170D01*
X111057873Y-66773954D01*
X111034500Y-66891459D01*
X108185500Y-66891459D01*
X108147051Y-66698165D01*
X108071632Y-66516086D01*
X107962139Y-66352218D01*
X107822782Y-66212861D01*
X107803758Y-66200149D01*
X107658913Y-66103367D01*
X107476839Y-66027950D01*
X107476829Y-66027947D01*
X107347388Y-66002200D01*
X107283541Y-65989500D01*
X107086459Y-65989500D01*
X107031662Y-66000399D01*
X106893170Y-66027947D01*
X106893160Y-66027950D01*
X106711086Y-66103367D01*
X106547218Y-66212860D01*
X106547217Y-66212862D01*
X106407862Y-66352217D01*
X106407860Y-66352218D01*
X106298367Y-66516086D01*
X106222950Y-66698160D01*
X106222947Y-66698170D01*
X106207873Y-66773954D01*
X106184500Y-66891459D01*
X101632424Y-66891459D01*
X101695232Y-66773954D01*
X101755300Y-66575934D01*
X101775583Y-66370000D01*
X101755300Y-66164066D01*
X101695232Y-65966046D01*
X101597685Y-65783550D01*
X101466410Y-65623590D01*
X101306450Y-65492315D01*
X101123954Y-65394768D01*
X101012158Y-65360855D01*
X100925935Y-65334700D01*
X100720000Y-65314417D01*
X100514064Y-65334700D01*
X100316043Y-65394769D01*
X100133549Y-65492315D01*
X99973590Y-65623589D01*
X99973589Y-65623590D01*
X99842315Y-65783549D01*
X99744769Y-65966043D01*
X99684700Y-66164064D01*
X99684700Y-66164066D01*
X99664417Y-66370000D01*
X78014292Y-66370000D01*
X78014125Y-65347739D01*
X78014132Y-65346697D01*
X78016515Y-65177769D01*
X78016999Y-65170306D01*
X78023808Y-65111472D01*
X78048258Y-64900182D01*
X79750100Y-64900182D01*
X79750100Y-65097017D01*
X79780890Y-65291423D01*
X79780893Y-65291436D01*
X79841713Y-65478619D01*
X79931075Y-65654004D01*
X80028317Y-65787846D01*
X80046772Y-65813246D01*
X80185954Y-65952428D01*
X80185957Y-65952430D01*
X80185958Y-65952431D01*
X80310235Y-66042724D01*
X80345195Y-66068124D01*
X80520575Y-66157484D01*
X80520577Y-66157484D01*
X80520580Y-66157486D01*
X80707763Y-66218306D01*
X80707769Y-66218307D01*
X80707774Y-66218309D01*
X80837380Y-66238836D01*
X80902182Y-66249100D01*
X80902183Y-66249100D01*
X81099018Y-66249100D01*
X81147619Y-66241402D01*
X81293426Y-66218309D01*
X81293433Y-66218306D01*
X81293436Y-66218306D01*
X81480619Y-66157486D01*
X81480619Y-66157485D01*
X81480625Y-66157484D01*
X81656005Y-66068124D01*
X81815246Y-65952428D01*
X81954428Y-65813246D01*
X82070124Y-65654005D01*
X82159484Y-65478625D01*
X82202350Y-65346697D01*
X82220306Y-65291436D01*
X82220306Y-65291433D01*
X82220309Y-65291426D01*
X82251100Y-65097017D01*
X82251100Y-64900183D01*
X82248787Y-64885582D01*
X82240654Y-64834231D01*
X82220309Y-64705774D01*
X82220307Y-64705769D01*
X82220306Y-64705763D01*
X82159486Y-64518580D01*
X82159484Y-64518577D01*
X82159484Y-64518575D01*
X82070124Y-64343195D01*
X81990755Y-64233954D01*
X81954431Y-64183958D01*
X81954430Y-64183957D01*
X81954428Y-64183954D01*
X81815246Y-64044772D01*
X81815243Y-64044769D01*
X81815241Y-64044768D01*
X81656004Y-63929075D01*
X81480619Y-63839713D01*
X81450726Y-63830000D01*
X99664417Y-63830000D01*
X99684700Y-64035935D01*
X99696998Y-64076475D01*
X99743392Y-64229419D01*
X99744769Y-64233956D01*
X99842315Y-64416450D01*
X99962580Y-64562995D01*
X99973590Y-64576410D01*
X100133550Y-64707685D01*
X100316046Y-64805232D01*
X100514066Y-64865300D01*
X100720000Y-64885583D01*
X100925934Y-64865300D01*
X101123954Y-64805232D01*
X101306450Y-64707685D01*
X101466410Y-64576410D01*
X101597685Y-64416450D01*
X101695232Y-64233954D01*
X101755300Y-64035934D01*
X101771697Y-63869453D01*
X105734500Y-63869453D01*
X105734500Y-64050546D01*
X105762828Y-64229406D01*
X105762831Y-64229419D01*
X105818787Y-64401635D01*
X105818788Y-64401638D01*
X105818789Y-64401639D01*
X105878371Y-64518575D01*
X105901005Y-64562995D01*
X105901005Y-64562996D01*
X105910751Y-64576410D01*
X106007447Y-64709501D01*
X106135499Y-64837553D01*
X106282006Y-64943996D01*
X106443361Y-65026211D01*
X106443364Y-65026212D01*
X106443363Y-65026212D01*
X106615580Y-65082168D01*
X106615586Y-65082169D01*
X106615591Y-65082171D01*
X106734833Y-65101057D01*
X106794453Y-65110500D01*
X106794454Y-65110500D01*
X106975547Y-65110500D01*
X107020261Y-65103417D01*
X107154409Y-65082171D01*
X107154416Y-65082168D01*
X107154419Y-65082168D01*
X107232601Y-65056765D01*
X107326639Y-65026211D01*
X107487994Y-64943996D01*
X107634501Y-64837553D01*
X107762553Y-64709501D01*
X107868996Y-64562994D01*
X107951211Y-64401639D01*
X108007171Y-64229409D01*
X108035500Y-64050546D01*
X108035500Y-63869454D01*
X108035500Y-63869453D01*
X111184500Y-63869453D01*
X111184500Y-64050546D01*
X111212828Y-64229406D01*
X111212831Y-64229419D01*
X111268787Y-64401635D01*
X111268788Y-64401638D01*
X111268789Y-64401639D01*
X111328371Y-64518575D01*
X111351005Y-64562995D01*
X111351005Y-64562996D01*
X111360751Y-64576410D01*
X111457447Y-64709501D01*
X111585499Y-64837553D01*
X111732006Y-64943996D01*
X111893361Y-65026211D01*
X111893364Y-65026212D01*
X111893363Y-65026212D01*
X112065580Y-65082168D01*
X112065586Y-65082169D01*
X112065591Y-65082171D01*
X112184833Y-65101057D01*
X112244453Y-65110500D01*
X112244454Y-65110500D01*
X112425547Y-65110500D01*
X112470261Y-65103417D01*
X112604409Y-65082171D01*
X112604416Y-65082168D01*
X112604419Y-65082168D01*
X112682601Y-65056765D01*
X112776639Y-65026211D01*
X112937994Y-64943996D01*
X113084501Y-64837553D01*
X113212553Y-64709501D01*
X113318996Y-64562994D01*
X113401211Y-64401639D01*
X113457171Y-64229409D01*
X113485500Y-64050546D01*
X113485500Y-63869454D01*
X113479251Y-63830000D01*
X117444417Y-63830000D01*
X117464700Y-64035935D01*
X117476998Y-64076475D01*
X117523392Y-64229419D01*
X117524769Y-64233956D01*
X117622315Y-64416450D01*
X117742580Y-64562995D01*
X117753590Y-64576410D01*
X117913550Y-64707685D01*
X118096046Y-64805232D01*
X118294066Y-64865300D01*
X118500000Y-64885583D01*
X118609663Y-64874782D01*
X141599100Y-64874782D01*
X141599100Y-65071617D01*
X141629890Y-65266023D01*
X141629893Y-65266036D01*
X141690713Y-65453219D01*
X141780075Y-65628604D01*
X141892650Y-65783550D01*
X141895772Y-65787846D01*
X142034954Y-65927028D01*
X142194195Y-66042724D01*
X142369575Y-66132084D01*
X142369577Y-66132084D01*
X142369580Y-66132086D01*
X142556763Y-66192906D01*
X142556769Y-66192907D01*
X142556774Y-66192909D01*
X142682754Y-66212862D01*
X142751182Y-66223700D01*
X142751183Y-66223700D01*
X142948018Y-66223700D01*
X143016446Y-66212862D01*
X143142426Y-66192909D01*
X143142433Y-66192906D01*
X143142436Y-66192906D01*
X143329619Y-66132086D01*
X143329619Y-66132085D01*
X143329625Y-66132084D01*
X143505005Y-66042724D01*
X143664246Y-65927028D01*
X143803428Y-65787846D01*
X143919124Y-65628605D01*
X144008484Y-65453225D01*
X144043097Y-65346697D01*
X144069306Y-65266036D01*
X144069306Y-65266033D01*
X144069309Y-65266026D01*
X144100100Y-65071617D01*
X144100100Y-64874783D01*
X144069309Y-64680374D01*
X144069307Y-64680369D01*
X144069306Y-64680363D01*
X144008486Y-64493180D01*
X144008484Y-64493177D01*
X144008484Y-64493175D01*
X143919124Y-64317795D01*
X143854915Y-64229419D01*
X143803431Y-64158558D01*
X143803430Y-64158557D01*
X143803428Y-64158554D01*
X143664246Y-64019372D01*
X143664243Y-64019369D01*
X143664241Y-64019368D01*
X143505004Y-63903675D01*
X143329619Y-63814313D01*
X143142436Y-63753493D01*
X143142423Y-63753490D01*
X142948018Y-63722700D01*
X142948017Y-63722700D01*
X142751183Y-63722700D01*
X142751182Y-63722700D01*
X142556776Y-63753490D01*
X142556763Y-63753493D01*
X142369580Y-63814313D01*
X142194195Y-63903675D01*
X142034958Y-64019368D01*
X141895768Y-64158558D01*
X141780075Y-64317795D01*
X141690713Y-64493180D01*
X141629893Y-64680363D01*
X141629890Y-64680376D01*
X141599100Y-64874782D01*
X118609663Y-64874782D01*
X118705934Y-64865300D01*
X118903954Y-64805232D01*
X119086450Y-64707685D01*
X119246410Y-64576410D01*
X119377685Y-64416450D01*
X119475232Y-64233954D01*
X119535300Y-64035934D01*
X119555583Y-63830000D01*
X119535300Y-63624066D01*
X119475232Y-63426046D01*
X119377685Y-63243550D01*
X119246410Y-63083590D01*
X119245023Y-63082452D01*
X119086450Y-62952315D01*
X118903956Y-62854769D01*
X118903955Y-62854768D01*
X118903954Y-62854768D01*
X118754724Y-62809500D01*
X118705935Y-62794700D01*
X118500000Y-62774417D01*
X118294064Y-62794700D01*
X118096043Y-62854769D01*
X117913549Y-62952315D01*
X117753590Y-63083589D01*
X117753589Y-63083590D01*
X117622315Y-63243549D01*
X117524769Y-63426043D01*
X117464700Y-63624064D01*
X117444417Y-63830000D01*
X113479251Y-63830000D01*
X113457171Y-63690591D01*
X113457169Y-63690586D01*
X113457168Y-63690580D01*
X113401212Y-63518364D01*
X113401211Y-63518363D01*
X113401211Y-63518361D01*
X113318996Y-63357006D01*
X113212553Y-63210499D01*
X113084501Y-63082447D01*
X112999128Y-63020420D01*
X112937996Y-62976005D01*
X112776635Y-62893787D01*
X112776636Y-62893787D01*
X112604419Y-62837831D01*
X112604406Y-62837828D01*
X112425547Y-62809500D01*
X112425546Y-62809500D01*
X112244454Y-62809500D01*
X112244453Y-62809500D01*
X112065593Y-62837828D01*
X112065580Y-62837831D01*
X111893364Y-62893787D01*
X111732004Y-62976005D01*
X111732003Y-62976005D01*
X111612597Y-63062759D01*
X111585499Y-63082447D01*
X111457447Y-63210499D01*
X111457444Y-63210502D01*
X111457444Y-63210503D01*
X111351005Y-63357003D01*
X111351005Y-63357004D01*
X111268787Y-63518364D01*
X111212831Y-63690580D01*
X111212828Y-63690593D01*
X111184500Y-63869453D01*
X108035500Y-63869453D01*
X108007171Y-63690591D01*
X108007169Y-63690586D01*
X108007168Y-63690580D01*
X107951212Y-63518364D01*
X107951211Y-63518363D01*
X107951211Y-63518361D01*
X107868996Y-63357006D01*
X107762553Y-63210499D01*
X107634501Y-63082447D01*
X107549128Y-63020420D01*
X107487996Y-62976005D01*
X107326635Y-62893787D01*
X107326636Y-62893787D01*
X107154419Y-62837831D01*
X107154406Y-62837828D01*
X106975547Y-62809500D01*
X106975546Y-62809500D01*
X106794454Y-62809500D01*
X106794453Y-62809500D01*
X106615593Y-62837828D01*
X106615580Y-62837831D01*
X106443364Y-62893787D01*
X106282004Y-62976005D01*
X106282003Y-62976005D01*
X106162597Y-63062759D01*
X106135499Y-63082447D01*
X106007447Y-63210499D01*
X106007444Y-63210502D01*
X106007444Y-63210503D01*
X105901005Y-63357003D01*
X105901005Y-63357004D01*
X105818787Y-63518364D01*
X105762831Y-63690580D01*
X105762828Y-63690593D01*
X105734500Y-63869453D01*
X101771697Y-63869453D01*
X101775583Y-63830000D01*
X101755300Y-63624066D01*
X101695232Y-63426046D01*
X101597685Y-63243550D01*
X101466410Y-63083590D01*
X101465023Y-63082452D01*
X101306450Y-62952315D01*
X101123956Y-62854769D01*
X101123955Y-62854768D01*
X101123954Y-62854768D01*
X100974724Y-62809500D01*
X100925935Y-62794700D01*
X100720000Y-62774417D01*
X100514064Y-62794700D01*
X100316043Y-62854769D01*
X100133549Y-62952315D01*
X99973590Y-63083589D01*
X99973589Y-63083590D01*
X99842315Y-63243549D01*
X99744769Y-63426043D01*
X99684700Y-63624064D01*
X99664417Y-63830000D01*
X81450726Y-63830000D01*
X81293436Y-63778893D01*
X81293423Y-63778890D01*
X81099018Y-63748100D01*
X81099017Y-63748100D01*
X80902183Y-63748100D01*
X80902182Y-63748100D01*
X80707776Y-63778890D01*
X80707763Y-63778893D01*
X80520580Y-63839713D01*
X80345195Y-63929075D01*
X80185958Y-64044768D01*
X80046768Y-64183958D01*
X79931075Y-64343195D01*
X79841713Y-64518580D01*
X79780893Y-64705763D01*
X79780890Y-64705776D01*
X79750100Y-64900182D01*
X78048258Y-64900182D01*
X78055890Y-64834231D01*
X78057355Y-64825841D01*
X78062190Y-64805230D01*
X78134507Y-64496962D01*
X78136921Y-64488812D01*
X78251379Y-64170955D01*
X78254710Y-64163150D01*
X78404939Y-63860575D01*
X78409160Y-63853178D01*
X78593172Y-63569887D01*
X78598208Y-63563034D01*
X78813570Y-63302771D01*
X78819353Y-63296548D01*
X79063216Y-63062759D01*
X79069683Y-63057237D01*
X79338805Y-62853032D01*
X79345860Y-62848294D01*
X79636654Y-62676391D01*
X79644223Y-62672487D01*
X79952853Y-62535151D01*
X79960809Y-62532145D01*
X80283197Y-62431195D01*
X80291441Y-62429126D01*
X80623824Y-62365805D01*
X80631179Y-62364785D01*
X80796780Y-62350281D01*
X80803236Y-62350000D01*
X142199990Y-62350000D01*
X142200000Y-62350000D01*
X143547589Y-62339906D01*
X143549213Y-62339911D01*
G37*
%TD.AperFunction*%
%TD*%
M02*
