%TF.GenerationSoftware,KiCad,Pcbnew,8.0.6*%
%TF.CreationDate,2024-11-13T18:12:31-06:00*%
%TF.ProjectId,speaker,73706561-6b65-4722-9e6b-696361645f70,rev?*%
%TF.SameCoordinates,Original*%
%TF.FileFunction,Soldermask,Top*%
%TF.FilePolarity,Negative*%
%FSLAX46Y46*%
G04 Gerber Fmt 4.6, Leading zero omitted, Abs format (unit mm)*
G04 Created by KiCad (PCBNEW 8.0.6) date 2024-11-13 18:12:31*
%MOMM*%
%LPD*%
G01*
G04 APERTURE LIST*
G04 Aperture macros list*
%AMRoundRect*
0 Rectangle with rounded corners*
0 $1 Rounding radius*
0 $2 $3 $4 $5 $6 $7 $8 $9 X,Y pos of 4 corners*
0 Add a 4 corners polygon primitive as box body*
4,1,4,$2,$3,$4,$5,$6,$7,$8,$9,$2,$3,0*
0 Add four circle primitives for the rounded corners*
1,1,$1+$1,$2,$3*
1,1,$1+$1,$4,$5*
1,1,$1+$1,$6,$7*
1,1,$1+$1,$8,$9*
0 Add four rect primitives between the rounded corners*
20,1,$1+$1,$2,$3,$4,$5,0*
20,1,$1+$1,$4,$5,$6,$7,0*
20,1,$1+$1,$6,$7,$8,$9,0*
20,1,$1+$1,$8,$9,$2,$3,0*%
G04 Aperture macros list end*
%ADD10RoundRect,0.155000X-0.155000X0.212500X-0.155000X-0.212500X0.155000X-0.212500X0.155000X0.212500X0*%
%ADD11R,0.977900X0.508000*%
%ADD12RoundRect,0.237500X0.250000X0.237500X-0.250000X0.237500X-0.250000X-0.237500X0.250000X-0.237500X0*%
%ADD13RoundRect,0.155000X0.155000X-0.212500X0.155000X0.212500X-0.155000X0.212500X-0.155000X-0.212500X0*%
%ADD14RoundRect,0.160000X0.160000X-0.222500X0.160000X0.222500X-0.160000X0.222500X-0.160000X-0.222500X0*%
%ADD15RoundRect,0.200000X-0.275000X0.200000X-0.275000X-0.200000X0.275000X-0.200000X0.275000X0.200000X0*%
%ADD16C,2.000000*%
%ADD17O,1.800000X1.800000*%
%ADD18O,1.500000X1.500000*%
%ADD19O,1.700000X1.700000*%
%ADD20R,3.500000X1.700000*%
%ADD21R,1.700000X1.700000*%
%ADD22RoundRect,0.200000X0.275000X-0.200000X0.275000X0.200000X-0.275000X0.200000X-0.275000X-0.200000X0*%
%ADD23RoundRect,0.225000X-0.225000X-0.250000X0.225000X-0.250000X0.225000X0.250000X-0.225000X0.250000X0*%
%ADD24R,2.100000X2.100000*%
%ADD25C,2.100000*%
%ADD26RoundRect,0.237500X-0.237500X0.250000X-0.237500X-0.250000X0.237500X-0.250000X0.237500X0.250000X0*%
%ADD27RoundRect,0.225000X-0.250000X0.225000X-0.250000X-0.225000X0.250000X-0.225000X0.250000X0.225000X0*%
%ADD28R,1.219200X0.279400*%
%ADD29RoundRect,0.200000X-0.200000X-0.275000X0.200000X-0.275000X0.200000X0.275000X-0.200000X0.275000X0*%
%ADD30RoundRect,0.200000X0.200000X0.275000X-0.200000X0.275000X-0.200000X-0.275000X0.200000X-0.275000X0*%
%ADD31R,0.850000X0.850000*%
%ADD32O,0.850000X0.850000*%
%ADD33RoundRect,0.010386X-0.447714X-0.162714X0.447714X-0.162714X0.447714X0.162714X-0.447714X0.162714X0*%
%ADD34RoundRect,0.010386X0.162714X-0.447714X0.162714X0.447714X-0.162714X0.447714X-0.162714X-0.447714X0*%
%ADD35RoundRect,0.102000X-0.550000X-0.550000X0.550000X-0.550000X0.550000X0.550000X-0.550000X0.550000X0*%
%ADD36RoundRect,0.237500X0.237500X-0.250000X0.237500X0.250000X-0.237500X0.250000X-0.237500X-0.250000X0*%
%ADD37RoundRect,0.162500X-0.837500X-0.162500X0.837500X-0.162500X0.837500X0.162500X-0.837500X0.162500X0*%
%ADD38RoundRect,0.250000X0.350000X0.625000X-0.350000X0.625000X-0.350000X-0.625000X0.350000X-0.625000X0*%
%ADD39O,1.200000X1.750000*%
G04 APERTURE END LIST*
D10*
%TO.C,C1*%
X134000000Y-104500000D03*
X134000000Y-105635000D03*
%TD*%
D11*
%TO.C,U2*%
X129165250Y-75700001D03*
X129165250Y-74750000D03*
X129165250Y-73799999D03*
X126434750Y-73799999D03*
X126434750Y-75700001D03*
%TD*%
D12*
%TO.C,R5*%
X133862500Y-73900000D03*
X132037500Y-73900000D03*
%TD*%
D13*
%TO.C,C5*%
X134700000Y-103067500D03*
X134700000Y-101932500D03*
%TD*%
D12*
%TO.C,R3*%
X125812500Y-106000000D03*
X123987500Y-106000000D03*
%TD*%
D14*
%TO.C,D2*%
X130400000Y-68472501D03*
X130400000Y-67327499D03*
%TD*%
D15*
%TO.C,RT2*%
X127800000Y-67925000D03*
X127800000Y-69575000D03*
%TD*%
D16*
%TO.C,H4*%
X143150000Y-114200000D03*
%TD*%
D17*
%TO.C,U1*%
X106885000Y-63960000D03*
D18*
X107185000Y-66990000D03*
X112035000Y-66990000D03*
D17*
X112335000Y-63960000D03*
D19*
X100720000Y-63830000D03*
D20*
X99820000Y-63830000D03*
D19*
X100720000Y-66370000D03*
D20*
X99820000Y-66370000D03*
D21*
X100720000Y-68910000D03*
D20*
X99820000Y-68910000D03*
D19*
X100720000Y-71450000D03*
D20*
X99820000Y-71450000D03*
D19*
X100720000Y-73990000D03*
D20*
X99820000Y-73990000D03*
D19*
X100720000Y-76530000D03*
D20*
X99820000Y-76530000D03*
D19*
X100720000Y-79070000D03*
D20*
X99820000Y-79070000D03*
D21*
X100720000Y-81610000D03*
D20*
X99820000Y-81610000D03*
D19*
X100720000Y-84150000D03*
D20*
X99820000Y-84150000D03*
D19*
X100720000Y-86690000D03*
D20*
X99820000Y-86690000D03*
D19*
X100720000Y-89230000D03*
D20*
X99820000Y-89230000D03*
D19*
X100720000Y-91770000D03*
D20*
X99820000Y-91770000D03*
D21*
X100720000Y-94310000D03*
D20*
X99820000Y-94310000D03*
D19*
X100720000Y-96850000D03*
D20*
X99820000Y-96850000D03*
D19*
X100720000Y-99390000D03*
D20*
X99820000Y-99390000D03*
D19*
X100720000Y-101930000D03*
D20*
X99820000Y-101930000D03*
D19*
X100720000Y-104470000D03*
D20*
X99820000Y-104470000D03*
D21*
X100720000Y-107010000D03*
D20*
X99820000Y-107010000D03*
D19*
X100720000Y-109550000D03*
D20*
X99820000Y-109550000D03*
D19*
X100720000Y-112090000D03*
D20*
X99820000Y-112090000D03*
D19*
X118500000Y-112090000D03*
D20*
X119400000Y-112090000D03*
D19*
X118500000Y-109550000D03*
D20*
X119400000Y-109550000D03*
D21*
X118500000Y-107010000D03*
D20*
X119400000Y-107010000D03*
D19*
X118500000Y-104470000D03*
D20*
X119400000Y-104470000D03*
D19*
X118500000Y-101930000D03*
D20*
X119400000Y-101930000D03*
D19*
X118500000Y-99390000D03*
D20*
X119400000Y-99390000D03*
D19*
X118500000Y-96850000D03*
D20*
X119400000Y-96850000D03*
D21*
X118500000Y-94310000D03*
D20*
X119400000Y-94310000D03*
D19*
X118500000Y-91770000D03*
D20*
X119400000Y-91770000D03*
D19*
X118500000Y-89230000D03*
D20*
X119400000Y-89230000D03*
D19*
X118500000Y-86690000D03*
D20*
X119400000Y-86690000D03*
D19*
X118500000Y-84150000D03*
D20*
X119400000Y-84150000D03*
D21*
X118500000Y-81610000D03*
D20*
X119400000Y-81610000D03*
D19*
X118500000Y-79070000D03*
D20*
X119400000Y-79070000D03*
D19*
X118500000Y-76530000D03*
D20*
X119400000Y-76530000D03*
D19*
X118500000Y-73990000D03*
D20*
X119400000Y-73990000D03*
D19*
X118500000Y-71450000D03*
D20*
X119400000Y-71450000D03*
D21*
X118500000Y-68910000D03*
D20*
X119400000Y-68910000D03*
D19*
X118500000Y-66370000D03*
D20*
X119400000Y-66370000D03*
D19*
X118500000Y-63830000D03*
D20*
X119400000Y-63830000D03*
D19*
X110194100Y-93560000D03*
D21*
X112734100Y-93560000D03*
D19*
X115274100Y-93560000D03*
%TD*%
D22*
%TO.C,R_Stat2_LED1*%
X133500000Y-69575000D03*
X133500000Y-67925000D03*
%TD*%
D23*
%TO.C,C2*%
X134200000Y-64000000D03*
X135750000Y-64000000D03*
%TD*%
D16*
%TO.C,On_Off1*%
X132550000Y-90850000D03*
X126050000Y-90850000D03*
X132550000Y-86350000D03*
X126050000Y-86350000D03*
%TD*%
D15*
%TO.C,R2*%
X126100000Y-67925000D03*
X126100000Y-69575000D03*
%TD*%
D24*
%TO.C,J3*%
X139850000Y-104850000D03*
D25*
X139850000Y-102310000D03*
%TD*%
D26*
%TO.C,R6*%
X124150000Y-77537500D03*
X124150000Y-79362500D03*
%TD*%
D27*
%TO.C,C3*%
X128277600Y-106668400D03*
X128277600Y-108218400D03*
%TD*%
D28*
%TO.C,U5*%
X127691000Y-63599999D03*
X127691000Y-64100001D03*
X127691000Y-64600000D03*
X127691000Y-65099999D03*
X127691000Y-65600001D03*
X131678800Y-65600001D03*
X131678800Y-65099999D03*
X131678800Y-64600000D03*
X131678800Y-64100001D03*
X131678800Y-63599999D03*
%TD*%
D14*
%TO.C,D3*%
X129200000Y-68472501D03*
X129200000Y-67327499D03*
%TD*%
D16*
%TO.C,Vol_up1*%
X92200000Y-72850000D03*
X85700000Y-72850000D03*
X92200000Y-68350000D03*
X85700000Y-68350000D03*
%TD*%
D29*
%TO.C,RT1*%
X129250000Y-71450000D03*
X130900000Y-71450000D03*
%TD*%
D30*
%TO.C,R1*%
X127725000Y-71450000D03*
X126075000Y-71450000D03*
%TD*%
D16*
%TO.C,H3*%
X81050000Y-114350000D03*
%TD*%
D31*
%TO.C,J1*%
X92275000Y-90550000D03*
D32*
X92275000Y-89550000D03*
X92275000Y-88549999D03*
X92275000Y-87550000D03*
X92275000Y-86550000D03*
X92275000Y-85550000D03*
%TD*%
D27*
%TO.C,C4*%
X130233400Y-106668400D03*
X130233400Y-108218400D03*
%TD*%
D14*
%TO.C,D1*%
X124350000Y-64622500D03*
X124350000Y-63477500D03*
%TD*%
D16*
%TO.C,H1*%
X81000600Y-64998600D03*
%TD*%
D22*
%TO.C,R_Stat1_LED1*%
X131800000Y-69525000D03*
X131800000Y-67875000D03*
%TD*%
D33*
%TO.C,U3*%
X127465000Y-102325000D03*
X127465000Y-102825000D03*
X127465000Y-103325000D03*
X127465000Y-103825000D03*
D34*
X128150000Y-104510000D03*
X128650000Y-104510000D03*
X129150000Y-104510000D03*
X129650000Y-104510000D03*
D33*
X130335000Y-103825000D03*
X130335000Y-103325000D03*
X130335000Y-102825000D03*
X130335000Y-102325000D03*
D34*
X129650000Y-101640000D03*
X129150000Y-101640000D03*
X128650000Y-101640000D03*
X128150000Y-101640000D03*
D35*
X128900000Y-103075000D03*
%TD*%
D36*
%TO.C,R4*%
X132500000Y-79412500D03*
X132500000Y-77587500D03*
%TD*%
D16*
%TO.C,Vol_down1*%
X85900000Y-105450000D03*
X92400000Y-105450000D03*
X85900000Y-109950000D03*
X92400000Y-109950000D03*
%TD*%
D15*
%TO.C,R_PG_LED1*%
X124400000Y-66000000D03*
X124400000Y-67650000D03*
%TD*%
D37*
%TO.C,U4*%
X126640000Y-78500000D03*
X126640000Y-79450000D03*
X126640000Y-80400000D03*
X130060000Y-80400000D03*
X130060000Y-79450000D03*
X130060000Y-78500000D03*
%TD*%
D16*
%TO.C,H2*%
X142849600Y-64973200D03*
%TD*%
D38*
%TO.C,J2*%
X139800000Y-76250000D03*
D39*
X137799999Y-76250000D03*
%TD*%
M02*
