%TF.GenerationSoftware,KiCad,Pcbnew,8.0.6*%
%TF.CreationDate,2024-11-19T20:55:52-06:00*%
%TF.ProjectId,speaker,73706561-6b65-4722-9e6b-696361645f70,rev?*%
%TF.SameCoordinates,Original*%
%TF.FileFunction,Legend,Bot*%
%TF.FilePolarity,Positive*%
%FSLAX46Y46*%
G04 Gerber Fmt 4.6, Leading zero omitted, Abs format (unit mm)*
G04 Created by KiCad (PCBNEW 8.0.6) date 2024-11-19 20:55:52*
%MOMM*%
%LPD*%
G01*
G04 APERTURE LIST*
%ADD10C,0.150000*%
%ADD11C,0.120000*%
G04 APERTURE END LIST*
D10*
X140433333Y-68804819D02*
X140433333Y-69519104D01*
X140433333Y-69519104D02*
X140480952Y-69661961D01*
X140480952Y-69661961D02*
X140576190Y-69757200D01*
X140576190Y-69757200D02*
X140719047Y-69804819D01*
X140719047Y-69804819D02*
X140814285Y-69804819D01*
X140004761Y-68900057D02*
X139957142Y-68852438D01*
X139957142Y-68852438D02*
X139861904Y-68804819D01*
X139861904Y-68804819D02*
X139623809Y-68804819D01*
X139623809Y-68804819D02*
X139528571Y-68852438D01*
X139528571Y-68852438D02*
X139480952Y-68900057D01*
X139480952Y-68900057D02*
X139433333Y-68995295D01*
X139433333Y-68995295D02*
X139433333Y-69090533D01*
X139433333Y-69090533D02*
X139480952Y-69233390D01*
X139480952Y-69233390D02*
X140052380Y-69804819D01*
X140052380Y-69804819D02*
X139433333Y-69804819D01*
D11*
%TO.C,J2*%
X143140000Y-71840000D02*
X144160000Y-71840000D01*
X144160000Y-71840000D02*
X144160000Y-76090000D01*
X143140000Y-73440000D02*
X143140000Y-71840000D01*
X141860000Y-73440000D02*
X143140000Y-73440000D01*
X137760000Y-79660000D02*
X142440000Y-79660000D01*
X141860000Y-70550000D02*
X141860000Y-73440000D01*
X137060000Y-73440000D02*
X137060000Y-71840000D01*
X138340000Y-73440000D02*
X137060000Y-73440000D01*
X137060000Y-71840000D02*
X136040000Y-71840000D01*
X136040000Y-71840000D02*
X136040000Y-76090000D01*
%TD*%
M02*
