M48
; DRILL file {KiCad 8.0.6} date 2024-11-19T20:55:47-0600
; FORMAT={-:-/ absolute / metric / decimal}
; #@! TF.CreationDate,2024-11-19T20:55:47-06:00
; #@! TF.GenerationSoftware,Kicad,Pcbnew,8.0.6
; #@! TF.FileFunction,Plated,1,2,PTH
FMAT,2
METRIC
; #@! TA.AperFunction,Plated,PTH,ViaDrill
T1C0.400
; #@! TA.AperFunction,Plated,PTH,ComponentDrill
T2C0.500
; #@! TA.AperFunction,Plated,PTH,ComponentDrill
T3C1.020
; #@! TA.AperFunction,Plated,PTH,ComponentDrill
T4C1.100
%
G90
G05
T1
X80.0Y-72.75
X80.0Y-80.0
X80.0Y-87.5
X80.0Y-95.0
X80.0Y-102.5
X80.0Y-110.0
X85.0Y-65.0
X87.5Y-80.0
X87.5Y-87.5
X87.5Y-95.0
X87.5Y-102.5
X87.5Y-115.0
X92.5Y-65.0
X95.0Y-80.0
X95.0Y-95.0
X95.0Y-102.5
X95.0Y-115.0
X123.75Y-99.95
X123.8Y-101.8
X123.85Y-98.6
X124.4Y-80.8
X124.8Y-69.15
X124.88Y-103.22
X125.0Y-95.0
X125.0Y-110.0
X125.0Y-115.0
X125.1Y-72.55
X125.85Y-77.15
X126.017Y-101.817
X126.271Y-100.039
X126.525Y-98.769
X127.897Y-109.767
X128.561Y-100.035
X130.0Y-95.0
X130.65Y-77.05
X130.75Y-74.7
X131.402Y-108.218
X131.55Y-101.8
X132.15Y-71.45
X132.367Y-105.627
X132.5Y-82.5
X132.5Y-110.0
X132.5Y-115.0
X132.6Y-66.35
X133.025Y-102.191
X134.1Y-75.1
X134.1Y-106.65
X134.75Y-101.0
X136.6Y-69.0
X137.2Y-64.05
X137.5Y-87.5
X137.5Y-95.0
X140.0Y-67.5
X140.0Y-110.0
X140.0Y-115.0
X141.1Y-68.9
X145.0Y-67.5
X145.0Y-72.5
X145.0Y-80.0
X145.0Y-87.5
X145.0Y-95.0
X145.0Y-102.5
X145.0Y-110.0
T2
X92.275Y-85.55
X92.275Y-86.55
X92.275Y-87.55
X92.275Y-88.55
X92.275Y-89.55
X92.275Y-90.55
T3
X100.72Y-63.83
X100.72Y-66.37
X100.72Y-68.91
X100.72Y-71.45
X100.72Y-73.99
X100.72Y-76.53
X100.72Y-79.07
X100.72Y-81.61
X100.72Y-84.15
X100.72Y-86.69
X100.72Y-89.23
X100.72Y-91.77
X100.72Y-94.31
X100.72Y-96.85
X100.72Y-99.39
X100.72Y-101.93
X100.72Y-104.47
X100.72Y-107.01
X100.72Y-109.55
X100.72Y-112.09
X110.194Y-93.56
X112.734Y-93.56
X115.274Y-93.56
X118.5Y-63.83
X118.5Y-66.37
X118.5Y-68.91
X118.5Y-71.45
X118.5Y-73.99
X118.5Y-76.53
X118.5Y-79.07
X118.5Y-81.61
X118.5Y-84.15
X118.5Y-86.69
X118.5Y-89.23
X118.5Y-91.77
X118.5Y-94.31
X118.5Y-96.85
X118.5Y-99.39
X118.5Y-101.93
X118.5Y-104.47
X118.5Y-107.01
X118.5Y-109.55
X118.5Y-112.09
T4
X85.7Y-68.35
X85.7Y-72.85
X85.9Y-105.45
X85.9Y-109.95
X92.2Y-68.35
X92.2Y-72.85
X92.4Y-105.45
X92.4Y-109.95
X126.05Y-86.35
X126.05Y-90.85
X132.55Y-86.35
X132.55Y-90.85
X139.85Y-102.31
X139.85Y-104.85
M30
